<?xml version="1.0" standalone="no"?>
<!DOCTYPE svg PUBLIC "-//W3C//DTD SVG 20010904//EN"
 "http://www.w3.org/TR/2001/REC-SVG-20010904/DTD/svg10.dtd">
<svg version="1.0" xmlns="http://www.w3.org/2000/svg"
 width="1024.000000pt" height="1024.000000pt" viewBox="0 0 1024.000000 1024.000000"
 preserveAspectRatio="xMidYMid meet">
<metadata>
Created by potrace 1.16, written by Peter Selinger 2001-2019
</metadata>
<g transform="translate(0.000000,1024.000000) scale(0.100000,-0.100000)"
fill="#000000" stroke="none">
<path d="M7326 7885 c-43 -15 -91 -57 -112 -97 -20 -38 -17 -125 5 -173 27
-59 81 -106 133 -115 135 -25 258 73 258 206 0 133 -149 227 -284 179z"/>
<path d="M6695 7874 c-65 -33 -114 -105 -115 -167 0 -42 36 -109 84 -156 76
-74 164 -68 255 17 56 53 78 108 67 167 -9 44 -76 122 -123 141 -43 19 -131
17 -168 -2z"/>
<path d="M3575 7833 c-46 -24 -66 -45 -86 -88 -26 -55 -24 -74 12 -128 40 -60
84 -87 143 -87 38 0 52 6 84 35 79 70 90 152 31 219 -54 62 -124 81 -184 49z"/>
<path d="M2655 7823 c-81 -41 -108 -137 -60 -218 65 -111 189 -114 263 -5 48
72 41 133 -23 197 -40 40 -46 43 -96 42 -30 0 -67 -7 -84 -16z"/>
<path d="M3092 7809 c-57 -28 -82 -62 -82 -111 0 -48 17 -83 64 -127 48 -47
120 -54 186 -19 83 45 111 121 72 198 -39 78 -147 105 -240 59z"/>
<path d="M8252 7330 c0 -14 2 -19 5 -12 2 6 2 18 0 25 -3 6 -5 1 -5 -13z"/>
<path d="M1910 7161 c0 -6 4 -12 8 -15 5 -3 9 1 9 9 0 8 -4 15 -9 15 -4 0 -8
-4 -8 -9z"/>
<path d="M8264 6960 c0 -113 2 -159 3 -102 2 56 2 148 0 205 -1 56 -3 10 -3
-103z"/>
<path d="M1912 7070 c0 -14 2 -19 5 -12 2 6 2 18 0 25 -3 6 -5 1 -5 -13z"/>
<path d="M1870 7048 c-10 -21 -10 -21 3 -6 8 10 18 14 22 10 5 -4 5 -1 1 6
-10 17 -14 15 -26 -10z"/>
<path d="M8296 7012 c-3 -5 1 -9 9 -9 8 0 15 4 15 9 0 4 -4 8 -9 8 -6 0 -12
-4 -15 -8z"/>
<path d="M1905 6986 c-24 -25 -29 -40 -12 -33 13 5 17 1 18 -16 2 -47 -4 -73
-22 -93 -23 -25 -24 -30 -3 -38 12 -4 14 -1 9 13 -3 11 -2 22 3 25 14 8 22
-30 9 -43 -8 -8 -8 -11 1 -11 7 0 12 -8 12 -17 0 -14 -3 -13 -20 5 -12 12 -25
22 -31 22 -5 0 -1 -10 11 -22 22 -24 25 -34 10 -43 -5 -3 -10 2 -10 12 0 28
-26 -5 -33 -42 -4 -16 -4 -24 -1 -17 8 17 24 15 24 -4 0 -8 5 -12 10 -9 7 4 5
14 -5 28 -22 32 -18 46 6 17 12 -15 19 -18 16 -8 -3 9 1 19 9 22 18 7 18 -13
-1 -38 -8 -11 -15 -28 -15 -39 0 -12 -4 -16 -12 -11 -9 5 -9 2 1 -9 11 -14 11
-23 2 -45 -7 -16 -9 -41 -5 -55 4 -17 2 -27 -5 -27 -6 0 -8 7 -5 15 4 8 1 15
-5 15 -16 0 -13 -26 5 -40 8 -8 19 -21 25 -31 7 -15 6 -17 -6 -13 -8 4 -15 10
-15 14 0 4 -8 11 -17 15 -12 4 -7 -5 11 -24 22 -22 33 -28 42 -20 9 8 11 5 7
-10 -3 -12 -9 -19 -13 -16 -5 3 -11 1 -14 -4 -3 -5 4 -11 16 -14 12 -4 19 -9
16 -12 -3 -4 -15 -2 -25 3 -21 12 -53 -1 -34 -12 6 -4 14 -5 19 -3 4 3 8 -9 8
-26 1 -28 0 -29 -12 -13 -12 17 -14 17 -29 2 -9 -9 -12 -16 -7 -16 16 0 24
-32 11 -44 -9 -8 -10 -8 -5 1 3 6 2 14 -3 17 -5 4 -7 -7 -5 -24 4 -23 1 -30
-11 -30 -9 0 -13 -5 -10 -10 4 -6 -2 -18 -12 -28 -10 -9 -14 -14 -9 -10 6 5
20 -2 33 -14 l23 -22 -26 -23 c-15 -13 -23 -23 -18 -23 6 0 15 5 22 12 7 7 12
8 12 2 0 -5 -6 -16 -12 -23 -11 -10 -10 -11 5 -6 9 4 17 16 17 26 0 10 5 19
10 19 13 0 12 -10 -4 -40 -10 -17 -11 -30 -5 -42 12 -22 26 -23 31 -4 2 10 9
6 23 -12 18 -25 18 -26 0 -12 -13 11 -19 12 -22 3 -3 -8 -15 -5 -41 9 -20 11
-29 13 -19 5 9 -8 17 -20 17 -26 0 -7 5 -9 13 -5 8 5 7 2 -2 -9 -13 -16 -14
-16 -27 0 -12 16 -13 16 -7 -5 7 -30 20 -37 41 -20 15 11 15 11 5 -3 -7 -9
-10 -19 -6 -22 3 -4 0 -7 -7 -7 -8 0 -27 12 -44 28 -17 15 -25 20 -18 11 14
-19 5 -52 -11 -42 -6 4 -7 1 -2 -7 6 -10 11 -9 21 4 11 16 14 15 39 -10 14
-14 24 -29 21 -32 -3 -3 -1 -11 6 -19 6 -7 8 -16 4 -20 -3 -3 -6 -1 -6 5 0 7
-4 12 -9 12 -10 0 -9 -50 2 -67 4 -7 -1 -20 -14 -32 l-21 -20 20 -21 c11 -12
25 -19 31 -16 5 4 13 1 17 -5 4 -7 3 -9 -3 -6 -6 4 -13 -7 -17 -25 -4 -23 -2
-34 11 -44 11 -7 20 -9 24 -3 3 6 6 -5 6 -23 0 -18 -2 -24 -4 -14 -4 15 -7 16
-15 5 -8 -11 -9 -10 -4 3 3 10 1 20 -3 23 -11 6 -23 -23 -15 -36 3 -5 0 -9 -5
-9 -6 0 -11 -5 -11 -11 0 -5 6 -7 13 -3 9 6 9 5 -1 -8 -10 -13 -9 -18 5 -29
15 -12 16 -12 10 5 -6 15 -5 17 7 7 11 -9 15 -9 19 1 2 7 4 1 4 -15 0 -21 -2
-25 -13 -17 -9 9 -15 6 -24 -10 -13 -25 -2 -51 12 -26 5 9 14 16 21 16 7 0 6
-4 -3 -10 -8 -5 -10 -10 -5 -10 6 0 4 -4 -4 -9 -7 -5 -10 -14 -6 -21 6 -9 9
-9 16 1 6 10 9 10 9 2 0 -19 -21 -27 -31 -12 -4 7 -11 10 -15 6 -4 -4 -2 -13
4 -19 23 -23 11 -30 -12 -7 -20 20 -22 25 -10 32 19 11 18 28 -1 21 -11 -5
-13 -2 -8 12 6 16 4 16 -20 -2 -26 -19 -35 -34 -19 -34 5 0 18 -9 31 -21 19
-17 20 -23 9 -37 -10 -12 -10 -14 0 -8 21 13 34 -4 16 -22 -14 -13 -14 -17 -3
-20 25 -8 48 -34 42 -48 -3 -8 -9 -12 -14 -9 -4 3 -5 13 -2 22 5 12 3 14 -6 8
-8 -4 -17 -2 -23 6 -7 10 -7 7 -3 -8 5 -18 2 -23 -11 -23 -15 0 -14 -3 4 -19
27 -23 28 -31 3 -24 -10 3 -22 -1 -27 -8 -5 -8 -2 -11 8 -6 10 3 15 0 14 -11
-1 -12 5 -16 19 -14 16 2 17 1 5 -7 -10 -7 -22 -6 -37 5 -36 23 -27 1 17 -42
22 -21 47 -50 56 -64 11 -16 3 -12 -25 14 -39 39 -41 39 -55 21 -10 -14 -11
-24 -4 -32 7 -9 7 -17 -2 -28 -9 -10 -9 -15 -1 -15 6 0 11 5 11 12 0 6 8 4 19
-6 17 -16 20 -16 35 -1 17 17 21 9 7 -13 -11 -19 -15 -19 -35 -3 -14 12 -19
12 -26 2 -4 -8 -13 -10 -19 -7 -6 4 -11 2 -11 -4 0 -8 9 -10 26 -6 25 7 25 6
10 -10 -16 -15 -16 -17 1 -29 16 -12 16 -15 2 -32 -28 -32 -30 -42 -9 -36 26
7 26 -13 0 -29 -25 -16 -26 -31 -1 -23 11 3 22 1 26 -5 3 -5 1 -10 -5 -10 -6
0 -8 -5 -5 -11 4 -6 13 -8 21 -5 8 3 11 0 7 -10 -3 -8 -12 -13 -19 -10 -7 3
-16 1 -19 -3 -3 -5 2 -12 11 -15 14 -5 12 -9 -9 -26 -14 -11 -32 -17 -40 -14
-8 3 -18 1 -22 -5 -3 -7 0 -8 9 -5 9 4 16 1 16 -6 0 -7 8 -19 18 -26 10 -9 13
-17 7 -21 -5 -5 -17 -17 -25 -28 -14 -19 -14 -19 3 -6 20 16 37 7 19 -11 -15
-15 -16 -31 -1 -22 13 8 59 -15 59 -29 0 -6 -9 -2 -20 8 -11 10 -23 15 -28 10
-4 -4 -1 -10 6 -12 6 -3 9 -9 6 -14 -3 -6 -16 -4 -30 6 -32 21 -30 10 3 -20
20 -17 30 -20 36 -12 6 8 7 5 3 -7 -4 -10 -1 -25 5 -32 19 -23 -2 -16 -22 8
-11 11 -22 18 -26 14 -4 -4 -3 -10 2 -14 6 -4 16 -18 24 -32 13 -24 13 -24 -5
-9 -10 9 -25 14 -32 12 -8 -3 -10 1 -6 11 3 9 2 16 -4 16 -5 0 -13 -7 -16 -16
-6 -15 -8 -15 -26 1 -39 35 -18 -1 25 -45 31 -31 45 -40 45 -28 0 9 -4 18 -10
20 -6 2 -6 8 0 18 8 13 10 12 10 -2 0 -10 4 -18 9 -18 5 0 9 -16 8 -35 -1 -21
-4 -30 -9 -22 -4 6 -8 8 -8 2 0 -5 -18 10 -40 33 -23 23 -43 42 -45 42 -15 0
2 -24 50 -73 51 -51 76 -87 39 -56 -14 11 -19 9 -36 -14 -21 -28 -41 -37 -32
-13 3 8 1 17 -4 20 -6 3 -12 -1 -16 -9 -6 -16 60 -73 71 -61 4 3 -2 13 -13 21
-10 8 -14 15 -7 15 6 0 15 -4 18 -10 8 -12 25 -13 25 -1 0 5 -10 11 -22 15
-18 4 -20 8 -11 17 10 10 16 7 31 -11 19 -23 19 -24 -5 -48 -19 -19 -27 -21
-38 -12 -11 9 -18 8 -31 -4 -9 -10 -13 -20 -10 -24 4 -3 11 0 15 7 7 11 14 11
40 0 17 -8 31 -17 31 -21 0 -11 -14 -10 -27 3 -12 12 -53 3 -53 -12 0 -12 18
-11 22 2 4 12 38 1 38 -12 0 -5 -8 -9 -17 -9 -16 -1 -16 -2 2 -16 14 -11 16
-18 7 -21 -6 -3 -9 -10 -5 -15 4 -7 -2 -9 -15 -6 -30 8 -27 -5 10 -46 29 -32
33 -33 45 -18 7 10 13 12 13 5 0 -6 -4 -15 -10 -18 -5 -3 -10 -11 -10 -16 0
-6 6 -7 13 -3 9 6 9 4 -1 -8 -7 -9 -12 -20 -11 -24 4 -26 -1 -36 -14 -25 -27
22 -26 -3 1 -25 15 -13 24 -24 19 -24 -11 0 -51 23 -59 35 -5 6 -8 6 -8 -1 0
-14 33 -44 48 -44 6 0 14 -5 18 -12 5 -7 3 -8 -6 -3 -10 6 -12 4 -7 -9 4 -9 3
-15 -2 -11 -5 3 -11 -1 -14 -7 -2 -7 -8 -9 -13 -5 -5 4 -2 12 6 17 8 5 11 12
7 17 -5 4 -12 2 -16 -5 -4 -7 -16 -10 -27 -6 -10 3 0 -11 24 -31 23 -20 42
-42 42 -48 0 -7 -5 -6 -11 3 -8 13 -12 12 -26 -7 -8 -13 -23 -23 -32 -23 -14
0 -14 -2 -1 -10 19 -12 33 -13 26 -1 -11 17 27 21 50 6 13 -9 24 -18 24 -21 0
-3 -10 2 -22 10 -12 9 -26 16 -30 16 -13 0 -9 -18 5 -23 6 -2 4 -3 -5 -2 -10
2 -21 -1 -24 -6 -3 -5 -10 -7 -15 -4 -5 4 -9 2 -9 -3 0 -17 13 -22 27 -10 7 6
14 9 16 7 1 -2 16 -20 32 -39 l30 -34 -37 27 c-42 31 -53 20 -13 -11 13 -11
21 -22 17 -26 -3 -4 0 -11 8 -16 8 -5 11 -12 6 -17 -4 -4 -12 0 -17 10 -6 9
-15 17 -21 17 -6 0 -3 -11 6 -25 9 -14 12 -25 6 -25 -5 0 -10 5 -10 10 0 6 -5
10 -11 10 -7 0 -17 7 -24 17 -9 13 -14 13 -20 3 -5 -7 -4 -11 1 -7 13 8 84
-91 77 -109 -7 -20 -20 -18 -33 6 -6 11 -18 20 -27 20 -13 0 -14 3 -5 12 10
10 16 7 28 -10 8 -12 19 -22 25 -22 13 0 -9 32 -37 53 -19 14 -23 15 -18 2 4
-10 0 -15 -11 -15 -14 0 -15 -3 -6 -14 10 -11 8 -17 -6 -25 -17 -9 -17 -11 2
-24 14 -11 17 -18 8 -28 -8 -11 -5 -19 10 -34 l20 -20 -12 22 c-17 34 -13 38
14 13 19 -18 22 -26 13 -37 -9 -11 -5 -20 15 -41 35 -36 35 -51 1 -17 -26 26
-47 28 -25 2 14 -17 4 -47 -15 -47 -8 0 -14 -4 -14 -10 0 -17 22 -11 43 13
l19 22 -7 -25 c-4 -14 -13 -29 -19 -33 -8 -6 -8 -10 2 -14 6 -2 12 -11 12 -19
0 -17 17 -19 23 -1 2 6 8 8 13 4 5 -4 2 -12 -6 -18 -13 -8 -13 -10 0 -18 9 -7
-1 -9 -33 -7 -51 4 -56 -8 -7 -17 27 -6 43 -27 20 -27 -5 0 -10 -7 -10 -15 0
-8 8 -15 17 -15 14 0 15 -2 4 -12 -11 -10 -14 -10 -18 0 -5 12 -33 18 -33 6 0
-3 10 -14 23 -25 16 -14 17 -17 5 -13 -11 4 -18 1 -18 -6 0 -7 -7 -10 -15 -6
-18 6 -20 -10 -3 -20 6 -4 14 -2 16 4 4 14 22 16 22 3 0 -5 -7 -17 -16 -25 -8
-9 -12 -16 -7 -16 5 0 14 5 21 12 9 9 15 8 26 -8 8 -10 12 -21 9 -24 -3 -3 -8
1 -10 8 -3 6 -11 12 -19 12 -9 0 -13 -4 -10 -9 4 -5 -2 -7 -12 -4 -10 2 -24
-3 -32 -12 -11 -13 -10 -15 3 -9 10 4 29 -7 52 -31 38 -37 45 -60 9 -26 -11
10 -31 24 -45 31 -22 12 -23 12 -10 -4 9 -10 11 -20 5 -24 -5 -4 -16 -16 -24
-27 -11 -16 -11 -17 0 -7 29 26 42 6 14 -22 -14 -14 -13 -17 11 -28 21 -9 28
-9 34 0 5 9 11 4 20 -14 10 -23 10 -25 -1 -16 -11 8 -17 6 -27 -9 -11 -19 -10
-20 8 -14 12 4 21 2 21 -4 0 -6 -4 -11 -10 -11 -5 0 -10 -5 -10 -11 0 -6 9 -8
23 -4 12 3 18 3 12 -2 -17 -14 -36 -53 -25 -53 5 0 10 5 10 10 0 6 5 10 11 10
6 0 8 -9 4 -21 -6 -18 -4 -20 17 -15 12 3 17 3 11 0 -15 -6 -18 -34 -4 -34 5
0 12 -8 15 -17 6 -15 4 -15 -14 2 -24 21 -36 15 -21 -12 8 -16 5 -23 -15 -38
-21 -16 -23 -20 -10 -27 19 -11 22 -32 3 -25 -6 2 -19 -3 -27 -11 -13 -14 -12
-15 3 -9 9 3 19 2 22 -3 3 -4 -1 -11 -7 -13 -9 -4 -9 -6 -1 -6 6 -1 18 6 27
14 8 8 18 15 22 15 5 0 3 -5 -4 -12 -17 -17 -15 -24 15 -52 25 -23 25 -25 5
-19 -14 3 -22 1 -22 -7 0 -7 -12 -3 -29 9 -34 24 -49 28 -27 6 8 -8 19 -15 25
-15 6 0 11 -5 11 -10 0 -6 9 -14 21 -18 20 -8 20 -8 -4 -27 l-25 -18 37 -33
c20 -19 42 -34 49 -34 6 0 12 -4 12 -10 0 -5 -7 -10 -15 -10 -8 0 -15 5 -15
10 0 6 -10 10 -22 10 -26 0 -17 -11 27 -35 29 -15 29 -16 5 -14 -38 2 -42 0
-28 -15 9 -10 17 -11 26 -4 18 15 45 -21 30 -40 -8 -9 -5 -19 12 -37 20 -21
21 -25 7 -25 -9 0 -17 -5 -17 -11 0 -5 -4 -7 -10 -4 -5 3 -10 2 -10 -4 0 -17
22 -24 31 -10 5 8 9 10 9 6 0 -10 -32 -60 -45 -69 -6 -5 -6 -8 2 -8 7 0 16 8
22 17 9 17 11 16 30 -1 11 -10 18 -23 15 -28 -3 -5 -12 -1 -20 9 -11 15 -13
16 -14 2 0 -21 61 -71 78 -64 8 3 25 -6 38 -20 14 -15 29 -23 36 -19 7 4 8 3
4 -4 -5 -9 -13 -9 -27 -2 -15 9 -19 7 -19 -5 0 -8 -7 -15 -15 -15 -8 0 -19 -9
-25 -20 -11 -21 -45 -27 -53 -10 -4 7 -5 6 -4 0 2 -6 23 -20 47 -31 25 -10 37
-13 28 -5 -22 16 -22 23 -3 43 12 12 19 13 30 3 12 -10 19 -10 32 1 12 10 15
11 9 1 -4 -7 -2 -20 5 -28 10 -13 10 -17 -1 -24 -17 -11 -13 -15 20 -25 21 -7
23 -6 13 6 -10 12 -8 15 6 15 10 0 18 -6 18 -13 0 -7 -3 -13 -7 -13 -3 0 -12
-16 -19 -35 -7 -19 -17 -35 -23 -35 -6 0 -8 -3 -4 -7 4 -4 18 6 31 21 14 16
25 24 25 18 0 -6 12 -19 26 -28 22 -15 27 -15 34 -3 5 7 13 10 17 5 4 -5 2
-11 -4 -13 -18 -6 -16 -33 2 -33 9 0 12 -6 9 -15 -4 -8 -10 -15 -15 -15 -5 0
-9 7 -9 15 0 8 -4 15 -10 15 -5 0 -10 -7 -10 -15 0 -8 4 -15 8 -15 15 0 77
-58 70 -65 -4 -4 -15 0 -24 9 -9 9 -19 14 -22 11 -3 -3 3 -13 14 -23 17 -17
21 -17 46 -3 30 17 34 26 18 36 -5 3 -10 1 -10 -4 0 -6 -4 -11 -10 -11 -5 0
-10 7 -10 15 0 8 -7 15 -16 15 -9 0 -14 6 -11 13 2 6 10 11 16 10 6 -2 11 4
11 13 0 8 5 12 10 9 8 -5 7 -11 -1 -21 -9 -11 -9 -18 -1 -26 9 -9 12 -9 12 1
0 7 9 3 19 -10 19 -23 19 -24 -2 -41 -12 -11 -15 -18 -7 -18 9 0 7 -7 -6 -22
-16 -19 -16 -20 -1 -9 11 8 30 12 51 8 28 -4 38 -1 50 16 l15 22 0 -21 c1 -17
7 -21 28 -22 25 0 26 1 8 14 -10 8 -13 14 -6 14 6 0 23 -12 36 -26 14 -15 25
-24 25 -20 0 4 7 0 16 -9 9 -9 22 -14 28 -12 7 3 21 -2 31 -10 14 -11 16 -17
8 -20 -7 -3 -13 -11 -13 -19 0 -21 -5 -18 -57 36 -45 48 -48 49 -67 32 -18
-16 -19 -16 -12 2 5 16 4 17 -9 6 -10 -8 -15 -9 -15 -1 0 6 -4 11 -10 11 -5 0
-10 -4 -10 -8 0 -13 68 -42 84 -36 8 3 23 -4 33 -16 10 -12 26 -31 35 -42 l18
-21 18 23 c18 22 19 23 47 4 17 -11 23 -20 15 -22 -7 -3 -17 3 -22 12 -5 9
-14 16 -19 16 -6 0 -7 -5 -3 -11 3 -6 0 -16 -7 -21 -12 -8 -11 -9 1 -5 8 2 23
-3 33 -11 15 -14 20 -14 27 -2 7 11 11 10 25 -4 10 -9 14 -20 11 -24 -4 -3
-11 0 -16 8 -5 8 -12 11 -16 7 -4 -4 3 -16 16 -27 25 -22 35 -26 25 -10 -3 6
-3 15 1 21 4 8 9 7 15 -2 4 -7 12 -10 16 -5 4 4 -3 16 -16 27 -13 11 -21 22
-17 26 3 3 15 -2 25 -11 11 -10 25 -15 32 -10 9 5 7 11 -6 21 -11 7 -15 13 -9
13 5 0 20 -9 34 -20 25 -20 25 -20 3 -20 -25 0 -26 -14 -4 -41 14 -17 16 -17
40 -1 30 20 102 23 108 5 3 -7 -2 -13 -11 -13 -9 0 -16 -4 -16 -10 0 -14 13
-13 28 2 9 9 15 9 24 0 7 -7 19 -12 27 -12 12 1 11 4 -4 12 -28 17 -48 38 -42
45 3 3 14 -3 24 -12 15 -16 73 -45 88 -45 3 0 5 5 5 10 0 6 -9 10 -19 10 -19
0 -39 35 -27 47 3 4 6 -1 6 -10 0 -21 23 -22 40 -2 10 12 16 12 26 4 8 -6 20
-9 29 -6 8 4 17 2 20 -3 4 -6 16 -8 28 -6 12 1 16 1 10 -1 -21 -7 -15 -21 16
-36 28 -14 31 -13 50 7 12 12 21 28 21 34 0 7 7 12 15 12 8 0 15 -6 15 -14 0
-8 13 -24 30 -36 23 -17 34 -19 50 -10 26 14 25 24 -5 40 -14 7 -23 15 -21 18
7 6 76 -38 76 -49 0 -5 8 -9 18 -9 13 1 9 8 -16 31 -19 17 -31 33 -28 36 3 3
17 -6 31 -21 23 -25 26 -26 47 -12 22 16 53 23 33 8 -16 -12 -36 -52 -26 -52
6 0 13 4 16 10 8 12 57 9 68 -5 5 -6 7 -3 3 7 -7 22 2 22 28 3 23 -17 40 -20
31 -5 -3 6 1 10 9 10 9 0 16 7 16 15 0 14 3 13 25 -1 23 -15 25 -15 19 0 -3 9
-11 13 -17 9 -6 -3 -7 -1 -3 5 5 9 13 9 28 1 15 -8 22 -8 28 0 4 8 12 5 25 -9
23 -25 29 -25 54 2 19 19 22 20 38 6 35 -30 46 -33 33 -9 -10 20 -10 21 9 9
12 -7 21 -16 21 -20 0 -5 10 -8 23 -7 l22 0 -22 11 c-22 11 -31 28 -15 28 20
0 62 -26 62 -39 0 -10 3 -11 13 -3 8 7 18 7 27 2 20 -13 30 -12 30 0 0 6 -8
10 -17 10 -15 0 -16 2 -3 10 10 6 16 6 18 0 6 -18 40 -10 45 10 4 17 11 20 34
15 80 -18 163 -10 163 15 0 6 -4 8 -10 5 -5 -3 -10 -1 -10 4 0 15 15 14 29 -3
8 -10 9 -16 1 -21 -5 -3 -10 -12 -9 -18 0 -9 2 -9 6 1 2 6 11 12 19 12 17 0
19 30 2 31 -7 0 -4 4 7 9 26 11 44 12 26 1 -10 -6 -10 -10 -1 -16 6 -4 17 -2
23 4 6 6 16 11 21 11 6 0 5 -4 -3 -9 -7 -5 -10 -14 -7 -20 10 -16 26 -14 26 3
0 8 9 18 20 21 24 8 60 -2 60 -16 0 -6 4 -7 10 -4 16 10 12 25 -7 26 -10 0
-13 3 -6 5 6 3 26 -2 43 -11 17 -9 35 -13 40 -10 5 3 11 1 15 -5 4 -6 15 -4
30 6 19 13 28 13 46 3 17 -9 24 -9 27 0 5 14 32 15 32 1 0 -5 9 -10 20 -10 11
0 20 5 20 12 0 6 8 4 19 -6 19 -17 21 -17 42 3 12 11 25 19 27 16 3 -3 -7 -16
-21 -29 -19 -17 -23 -27 -15 -32 6 -4 14 -2 16 4 2 7 8 12 14 12 6 0 8 -7 4
-15 -3 -9 0 -15 9 -15 18 0 20 27 3 32 -7 3 -8 10 -4 17 6 9 16 6 37 -15 16
-15 32 -24 36 -20 4 4 1 11 -6 15 -9 6 -10 11 -2 15 6 4 11 2 11 -4 0 -8 10
-10 28 -6 20 5 23 4 12 -3 -13 -9 -13 -12 2 -27 17 -17 78 -26 78 -11 0 5 9 5
20 2 11 -4 20 -2 20 4 0 6 8 11 18 11 16 1 16 1 0 14 -10 7 -18 16 -18 20 0
13 18 5 45 -20 20 -18 31 -22 38 -15 16 16 37 13 37 -5 0 -14 2 -14 15 0 19
19 19 30 0 22 -9 -3 -15 0 -15 10 0 11 5 14 18 9 9 -4 25 -10 35 -12 20 -6 22
-14 5 -31 -7 -7 -9 -12 -4 -12 12 0 36 27 36 41 0 11 2 11 13 0 10 -10 9 -15
-5 -25 -16 -12 -16 -15 7 -36 14 -13 25 -18 25 -12 0 6 -6 15 -14 19 -12 7
-11 12 5 31 10 14 23 20 30 16 9 -5 7 -11 -6 -20 -10 -8 -15 -17 -12 -21 4 -4
12 -2 19 5 7 7 17 8 30 1 14 -7 18 -6 18 5 0 8 -6 16 -12 19 -7 2 -9 8 -5 13
4 5 12 2 17 -6 8 -12 13 -13 30 -2 12 7 20 8 20 2 0 -5 7 -10 15 -10 8 0 15
-4 15 -10 0 -5 11 -9 25 -8 26 2 34 23 13 31 -7 2 -9 8 -5 13 4 5 12 3 16 -4
4 -7 15 -10 25 -6 11 4 29 -2 48 -16 33 -24 48 -22 23 4 -9 9 -13 16 -8 16 5
0 14 -5 20 -11 8 -8 17 -8 31 0 16 9 23 7 36 -12 l17 -22 -6 27 c-3 15 -1 30
5 33 6 3 7 -1 4 -9 -8 -21 13 -21 33 0 9 8 27 13 42 11 14 -2 20 -2 14 0 -7 3
-13 9 -13 15 0 5 7 7 16 4 9 -3 18 -6 20 -6 2 0 4 -7 4 -15 0 -8 -5 -15 -12
-15 -6 0 -2 -9 11 -21 22 -20 23 -20 42 -3 17 15 23 16 40 6 11 -7 29 -10 40
-7 11 4 28 1 37 -7 16 -12 16 -11 2 7 -8 11 -23 26 -33 33 -9 7 -16 21 -16 30
1 13 2 14 5 2 3 -8 20 -25 39 -37 39 -26 45 -27 45 -13 0 6 -8 10 -17 10 -9 0
-13 3 -10 7 4 3 -1 12 -11 19 -9 7 -12 14 -7 14 6 0 23 -11 39 -25 27 -23 84
-36 72 -16 -3 5 0 11 7 14 10 4 12 -3 9 -24 -2 -15 -12 -30 -21 -32 -12 -4
-13 -5 -1 -6 8 0 24 6 35 15 16 12 17 16 6 23 -11 7 -11 9 0 13 8 3 22 -4 33
-14 24 -22 37 -23 30 -3 -4 8 -10 15 -15 15 -6 0 -4 6 3 14 14 15 32 0 21 -17
-3 -5 5 -4 17 3 18 9 24 9 30 0 5 -7 16 -10 25 -6 10 3 24 1 31 -5 11 -9 20
-7 39 5 29 19 46 22 20 3 -14 -11 -15 -16 -5 -22 9 -5 15 -4 18 3 6 19 15 15
56 -23 41 -37 71 -48 41 -15 -28 30 -10 36 20 6 20 -20 27 -22 31 -12 3 8 12
17 19 20 10 4 11 -2 4 -27 -8 -29 -7 -30 6 -13 8 10 16 24 18 30 3 7 12 4 26
-8 20 -18 22 -18 41 -1 11 10 17 22 14 26 -3 5 0 9 5 9 6 0 11 7 11 16 0 8 5
12 10 9 8 -5 8 -11 1 -19 -8 -9 -4 -19 15 -37 25 -22 26 -23 16 -2 -9 17 -9
22 4 27 24 9 31 7 14 -4 -12 -8 -13 -10 -1 -10 8 0 22 7 32 16 11 10 25 14 36
10 15 -6 15 -8 3 -16 -8 -6 -10 -10 -5 -10 40 0 36 32 -5 49 -18 7 -20 10 -7
10 10 1 29 -10 43 -24 14 -14 29 -25 34 -25 6 0 10 -5 10 -11 0 -5 5 -7 10 -4
8 5 7 11 -1 21 -14 17 -5 18 22 4 24 -13 25 2 3 25 -9 9 -13 19 -10 22 4 4 14
-3 22 -16 15 -21 17 -21 34 -6 12 11 26 14 40 10 12 -4 28 -1 38 7 15 12 16
11 4 -4 -12 -15 -12 -20 2 -34 10 -9 20 -13 24 -10 3 4 0 11 -8 16 -8 5 -11
13 -6 17 4 4 13 0 20 -10 17 -22 26 -22 26 3 0 24 26 26 57 5 14 -10 24 -12
28 -5 3 5 -1 10 -9 10 -9 0 -16 5 -16 10 0 6 -10 10 -22 10 -21 0 -21 0 -2 14
15 12 20 12 22 2 2 -7 14 -18 27 -24 25 -12 33 -4 15 14 -6 6 -2 14 13 23 18
11 20 11 9 0 -16 -17 -15 -29 3 -29 18 0 20 -17 3 -23 -8 -2 -9 -8 -4 -13 5
-5 11 -4 13 4 3 6 11 12 19 12 19 0 18 10 -3 26 -12 9 -13 13 -5 14 7 0 23 -9
34 -20 28 -26 44 -20 40 14 -3 28 12 36 22 11 8 -21 25 -19 47 7 23 25 25 11
4 -19 -10 -14 -12 -24 -5 -28 5 -3 10 1 10 9 0 21 9 20 33 -2 19 -17 20 -16 7
7 -10 19 -10 25 1 32 8 5 18 9 22 9 5 0 5 10 2 22 -6 17 -4 20 11 14 10 -4 21
-1 25 6 6 9 11 9 23 -1 9 -7 14 -16 12 -20 -2 -3 6 -7 19 -7 l24 -2 -25 23
c-21 20 -22 24 -9 35 9 7 18 10 22 6 3 -3 1 -6 -5 -6 -22 0 -12 -19 18 -35 17
-9 30 -11 30 -5 0 5 -7 10 -15 10 -13 0 -13 3 -3 20 14 22 43 27 52 8 5 -10 7
-10 12 0 7 15 34 16 34 1 0 -5 5 -7 11 -4 6 5 2 13 -11 22 -18 13 -24 13 -31
2 -4 -7 -11 -10 -16 -6 -10 10 16 27 42 27 11 0 33 7 48 15 15 8 34 12 41 9 8
-3 17 -1 21 5 3 6 0 9 -8 5 -8 -3 -18 0 -22 5 -4 8 -16 5 -34 -9 -35 -24 -47
-16 -18 13 14 14 33 21 56 20 20 0 30 2 24 4 -7 3 -13 13 -13 23 0 15 6 17 42
13 27 -4 39 -3 35 5 -4 5 -15 8 -25 5 -19 -5 -50 23 -38 34 3 3 6 1 6 -5 0 -7
7 -12 16 -12 14 0 14 3 4 15 -7 9 -9 19 -5 23 4 4 10 1 12 -5 6 -18 30 -16 36
1 4 10 1 13 -9 9 -7 -3 -14 0 -14 7 0 8 8 10 23 6 15 -4 27 1 40 17 13 15 20
18 24 10 2 -7 9 -13 15 -13 6 0 4 8 -5 18 -23 25 -21 35 3 27 18 -6 20 -3 14
19 -7 31 5 33 42 10 13 -9 27 -14 31 -10 3 3 1 6 -5 6 -6 0 -16 9 -22 21 -11
20 -11 20 17 3 l28 -18 -24 27 c-19 21 -21 27 -9 27 9 0 21 7 28 15 10 12 9
15 -4 15 -10 0 -14 5 -11 10 5 8 12 7 22 -1 12 -10 16 -10 23 2 8 11 13 12 30
1 12 -7 20 -8 20 -2 0 5 -5 10 -11 10 -5 0 -7 5 -4 10 8 13 -1 13 -26 0 -13
-7 -19 -7 -19 0 0 5 5 10 10 10 12 0 14 26 3 33 -5 2 -3 3 4 1 20 -5 23 9 5
23 -15 13 -15 13 6 3 17 -8 27 -8 42 3 17 12 18 16 6 26 -11 9 -15 8 -20 -4
-3 -8 -11 -15 -17 -15 -7 0 -5 8 6 20 20 22 51 26 58 8 4 -10 6 -10 6 0 1 7
-6 15 -14 18 -8 4 -15 10 -15 15 0 5 7 9 15 9 19 0 19 9 -2 32 -11 12 -12 18
-4 18 7 0 26 9 42 21 28 20 49 19 49 -2 0 -6 -4 -8 -9 -5 -5 3 -21 0 -36 -8
-18 -9 -23 -16 -15 -21 7 -4 16 -2 20 5 4 7 14 10 21 8 8 -3 19 2 26 11 16 21
16 32 1 29 -8 -2 -12 6 -11 20 3 25 -6 28 -26 9 -11 -10 -12 -8 -7 9 5 15 1
24 -11 28 -15 6 -15 8 -3 16 22 14 30 12 24 -5 -4 -8 -2 -15 4 -15 6 0 18 -3
27 -7 15 -5 15 -3 -1 17 -11 12 -25 29 -33 37 -18 19 -6 29 16 12 14 -12 14
-8 -3 21 -17 29 -18 38 -8 48 7 7 18 12 24 12 14 0 13 13 -2 28 -9 9 -9 12 0
12 7 0 12 -4 12 -10 0 -5 7 -10 15 -10 8 0 15 5 15 10 0 6 -4 10 -10 10 -5 0
-10 5 -10 11 0 8 5 7 15 -1 9 -7 19 -9 23 -5 4 4 1 10 -5 12 -7 3 -13 11 -13
19 0 12 4 13 23 3 22 -12 22 -12 3 10 -19 21 -19 22 3 43 21 18 21 22 7 30
-19 11 -20 25 -3 41 15 14 47 18 47 6 0 -5 5 -9 12 -9 9 0 9 3 0 12 -16 16
-15 29 2 22 8 -3 17 -1 21 5 3 7 -2 11 -14 11 -11 0 -23 -4 -26 -10 -10 -17
-21 -11 -22 12 -2 19 0 20 8 8 9 -13 10 -12 5 3 -3 11 0 17 9 17 7 0 16 4 19
9 7 11 -13 9 -33 -3 -9 -6 -22 0 -39 18 -15 14 -21 26 -14 26 6 0 12 5 12 10
0 6 -6 10 -13 10 -7 0 -18 9 -24 20 -10 14 -2 12 32 -11 25 -17 42 -35 39 -41
-4 -6 -10 -5 -15 3 -6 10 -9 10 -9 2 0 -6 3 -14 8 -16 10 -7 66 43 57 51 -4 4
-10 1 -12 -5 -6 -17 -21 -16 -39 1 -7 8 -26 24 -40 35 -15 12 -24 24 -21 27 3
4 13 -1 22 -10 9 -9 26 -15 38 -15 13 1 16 3 7 5 -8 3 -24 18 -35 34 -10 16
-23 26 -27 24 -4 -3 -8 7 -8 21 l0 26 24 -28 c25 -27 25 -28 19 -4 -5 20 -3
23 10 18 11 -4 14 -2 10 9 -6 16 -23 19 -23 4 0 -5 -4 -10 -10 -10 -16 0 -11
14 10 27 16 11 23 9 44 -11 l24 -25 -2 24 c0 13 -4 21 -8 19 -12 -8 -36 8 -41
27 -3 13 0 19 10 19 12 0 13 3 4 14 -8 10 -9 16 -1 21 5 3 10 1 10 -4 0 -6 8
-11 17 -11 15 0 15 2 -2 14 -16 12 -17 16 -6 30 9 11 10 16 2 16 -6 0 -11 -5
-11 -10 0 -7 -6 -7 -20 0 -14 7 -20 7 -20 0 0 -5 -4 -10 -10 -10 -9 0 -13 113
-10 260 0 25 0 73 0 107 -1 37 3 64 10 68 9 6 9 10 -1 16 -7 4 -10 12 -5 16 5
4 13 1 19 -8 9 -15 12 -15 29 0 10 8 18 21 18 28 0 7 3 12 8 12 18 -3 21 3 12
25 -10 27 10 53 31 41 8 -6 8 -2 0 13 -14 27 -14 35 1 26 7 -4 8 -3 4 5 -6 9
-11 9 -24 -1 -13 -11 -15 -10 -9 10 3 13 3 21 0 18 -4 -3 -11 -1 -18 4 -8 7
-18 -3 -33 -34 -33 -66 -28 -126 9 -103 21 13 26 32 6 24 -8 -3 -12 6 -13 29
0 19 3 34 7 34 24 0 34 -73 13 -91 -8 -6 -11 -15 -8 -20 3 -5 -1 -9 -9 -9 -38
0 -57 120 -21 134 8 3 14 14 14 25 0 11 4 22 8 25 5 3 9 19 10 36 0 17 -4 28
-9 25 -5 -4 -9 3 -9 14 0 11 5 23 11 26 6 5 4 12 -8 20 -17 13 -17 14 1 28 18
13 18 14 1 21 -12 4 -14 10 -7 19 6 7 6 21 1 35 -10 27 -23 30 -14 2 7 -23 -3
-63 -14 -56 -4 3 -13 0 -21 -6 -12 -8 -12 -9 3 -4 9 3 18 0 19 -7 2 -22 5 -32
12 -48 4 -8 2 -28 -3 -42 -6 -15 -7 -27 -3 -27 12 0 13 -50 2 -68 -8 -14 -9
-12 -10 10 0 14 -3 28 -7 31 -5 2 -3 2 4 1 7 -2 10 3 6 11 -3 8 -8 13 -12 11
-3 -2 -5 22 -5 55 1 32 -2 59 -7 59 -10 0 -10 -1 -9 -485 0 -266 -3 -390 -14
-474 -9 -63 -13 -119 -9 -125 3 -6 2 -8 -2 -3 -5 4 -23 -37 -41 -90 -121 -363
-379 -608 -771 -730 l-88 -28 -2120 -5 c-1166 -3 -2172 -2 -2235 2 -278 15
-518 117 -703 297 -178 173 -283 369 -334 626 -17 85 -18 208 -18 2132 0 1123
-2 2044 -5 2046 -3 3 -10 0 -15 -7z m15 -312 c0 -8 -5 -12 -10 -9 -6 4 -8 11
-5 16 9 14 15 11 15 -7z m-14 -111 c-6 -16 -26 -9 -26 10 0 7 4 6 10 -3 7 -11
10 -3 11 30 2 39 3 40 6 12 3 -19 2 -41 -1 -49z m1 -60 c1 -22 -1 -24 -8 -10
-6 9 -7 22 -4 27 9 14 10 13 12 -17z m-6 -266 c-14 -14 -14 -40 -1 -32 6 3 10
-3 10 -15 0 -18 -3 -19 -21 -10 -16 9 -19 18 -14 37 4 16 1 29 -6 34 -10 6
-10 11 0 23 11 13 10 18 -3 32 -20 20 -13 32 8 15 8 -7 14 -26 14 -42 -1 -16
2 -32 5 -36 4 -3 8 23 9 58 l2 64 3 -59 c2 -33 -1 -64 -6 -69z m-31 -7 c0 -5
-7 -10 -15 -10 -8 0 -15 5 -15 10 0 6 7 10 15 10 8 0 15 -4 15 -10z m-10 -50
c17 -17 30 -35 30 -40 0 -6 5 -10 10 -10 6 0 10 -5 10 -12 0 -7 -20 9 -45 35
-25 27 -45 50 -45 53 0 10 13 2 40 -26z m30 -80 c0 -5 -5 -10 -11 -10 -5 0 -7
5 -4 10 3 6 8 10 11 10 2 0 4 -4 4 -10z m10 -144 c-7 -7 -13 -7 -20 0 -6 6 -3
10 10 10 13 0 16 -4 10 -10z m9 -65 c-1 -13 -2 -13 -6 2 -2 9 -9 17 -14 17 -5
0 -9 5 -9 11 0 8 5 8 15 -1 8 -7 14 -20 14 -29z m-22 -33 c-3 -8 -6 -5 -6 6
-1 11 2 17 5 13 3 -3 4 -12 1 -19z m-6 -35 c13 -16 12 -17 -3 -4 -10 7 -18 15
-18 17 0 8 8 3 21 -13z m9 -41 c0 -5 -7 -9 -15 -9 -8 0 -12 4 -9 9 3 4 9 8 15
8 5 0 9 -4 9 -8z m16 -39 c-13 -14 -25 9 -13 28 12 20 12 20 15 -1 2 -12 1
-24 -2 -27z m1 -60 c-3 -10 -5 -2 -5 17 0 19 2 27 5 18 2 -10 2 -26 0 -35z
m-20 -15 c-3 -8 -6 -5 -6 6 -1 11 2 17 5 13 3 -3 4 -12 1 -19z m-57 -208 c0
-5 -4 -10 -10 -10 -5 0 -10 5 -10 10 0 6 5 10 10 10 6 0 10 -4 10 -10z m72
-67 c-6 -2 -9 -10 -6 -15 4 -7 2 -8 -5 -4 -13 9 -5 26 12 25 9 0 8 -2 -1 -6z
m-12 -44 c0 -5 4 -8 8 -5 5 3 9 -1 9 -8 0 -11 -4 -12 -19 -3 -20 13 -24 27 -8
27 6 0 10 -5 10 -11z m-54 -246 c-10 -10 -19 5 -10 18 6 11 8 11 12 0 2 -7 1
-15 -2 -18z m29 -12 c3 -5 1 -12 -5 -16 -5 -3 -10 1 -10 9 0 18 6 21 15 7z
m37 -64 c-7 -8 -8 -18 -4 -22 4 -5 1 -5 -5 -1 -10 5 -10 11 -1 26 7 11 14 17
17 15 2 -3 -1 -11 -7 -18z m-19 -101 c-4 -6 -8 -5 -11 2 -2 7 -10 12 -18 12
-9 0 -12 4 -9 10 4 6 13 5 25 -2 10 -7 16 -17 13 -22z m7 -58 c0 -12 -6 -9
-26 13 -19 22 -19 22 4 8 12 -8 22 -17 22 -21z m17 -80 c-3 -8 -6 -5 -6 6 -1
11 2 17 5 13 3 -3 4 -12 1 -19z m-71 -55 c-7 -7 -26 7 -26 19 0 6 6 6 15 -2 9
-7 13 -15 11 -17z m54 -103 c0 -5 -2 -10 -4 -10 -3 0 -8 5 -11 10 -3 6 -1 10
4 10 6 0 11 -4 11 -10z m-110 -130 c0 -5 -4 -10 -10 -10 -5 0 -10 5 -10 10 0
6 5 10 10 10 6 0 10 -4 10 -10z m71 -260 c5 0 9 -5 9 -10 0 -6 -11 -3 -24 7
-16 12 -20 20 -12 25 6 4 12 1 14 -7 2 -8 8 -15 13 -15z m-25 -46 c-9 -9 -20
-14 -23 -10 -4 3 2 13 13 20 25 18 31 12 10 -10z m0 -51 c20 -27 17 -35 -6
-16 -20 17 -26 33 -14 33 4 0 13 -8 20 -17z m-31 -23 c-3 -5 1 -10 9 -10 9 0
16 -4 16 -10 0 -14 -11 -12 -33 4 -14 11 -15 15 -5 19 19 8 20 8 13 -3z m29
-256 c5 -14 4 -15 -9 -4 -17 14 -19 20 -6 20 5 0 12 -7 15 -16z m22 -125 c19
-22 19 -22 -3 -8 -13 8 -23 17 -23 21 0 12 6 9 26 -13z m6525 -114 c11 -4 17
-11 13 -16 -8 -14 -44 20 -43 40 1 13 2 13 6 -1 2 -9 13 -20 24 -23z m-94 -7
c-3 -8 -6 -5 -6 6 -1 11 2 17 5 13 3 -3 4 -12 1 -19z m-6510 -83 c-7 -7 -16
-10 -21 -5 -12 12 2 30 19 24 11 -5 12 -9 2 -19z m27 -14 c3 -5 -1 -14 -9 -21
-11 -9 -14 -8 -12 9 1 22 12 28 21 12z m46 -5 c0 -2 -7 -7 -16 -10 -8 -3 -12
-2 -9 4 6 10 25 14 25 6z m-16 -41 c11 -8 15 -15 10 -15 -6 0 -19 7 -30 15
-10 8 -14 14 -9 14 6 0 19 -6 29 -14z m10 -43 c2 -4 -4 -8 -14 -8 -10 0 -16 4
-14 8 3 4 9 8 14 8 5 0 11 -4 14 -8z m-14 -132 c0 -5 -4 -10 -10 -10 -5 0 -10
5 -10 10 0 6 5 10 10 10 6 0 10 -4 10 -10z m6500 -279 c0 -5 -8 -12 -17 -15
-11 -5 -14 -10 -6 -14 16 -11 4 -72 -13 -65 -17 6 -18 39 -1 47 9 5 9 7 -1 12
-10 5 -9 10 5 24 20 21 33 25 33 11z m-6518 -81 c12 -11 18 -20 14 -20 -5 0
-2 -7 5 -17 13 -15 12 -15 -8 -2 -13 8 -23 19 -23 26 0 7 -4 13 -10 13 -5 0
-10 5 -10 10 0 15 8 12 32 -10z m-12 -50 c0 -5 -4 -10 -9 -10 -6 0 -13 5 -16
10 -3 6 1 10 9 10 9 0 16 -4 16 -10z m90 -112 c0 -4 -4 -8 -9 -8 -6 0 -12 4
-15 8 -3 5 1 9 9 9 8 0 15 -4 15 -9z m6371 -51 c-10 -9 -11 -8 -5 6 3 10 9 15
12 12 3 -3 0 -11 -7 -18z m-6385 -134 c-7 -7 -26 7 -26 19 0 6 6 6 15 -2 9 -7
13 -15 11 -17z m6424 17 c0 -5 -2 -10 -4 -10 -3 0 -8 5 -11 10 -3 6 -1 10 4
10 6 0 11 -4 11 -10z m-6385 -10 c3 -6 -1 -7 -9 -4 -18 7 -21 14 -7 14 6 0 13
-4 16 -10z m-25 -70 c0 -5 -5 -10 -11 -10 -5 0 -7 5 -4 10 3 6 8 10 11 10 2 0
4 -4 4 -10z m10 -110 c0 -5 -5 -10 -11 -10 -5 0 -7 5 -4 10 3 6 8 10 11 10 2
0 4 -4 4 -10z m-10 -31 c0 -5 5 -7 12 -3 6 4 8 3 4 -4 -3 -5 0 -12 6 -15 7 -2
10 -7 7 -11 -4 -4 -14 0 -22 9 -9 8 -20 15 -26 15 -6 0 -11 5 -11 10 0 6 7 10
15 10 8 0 15 -5 15 -11z m6270 -164 c-7 -8 -17 -15 -23 -15 -6 0 -2 7 9 15 25
19 30 19 14 0z m-6183 -19 c0 -8 -6 -12 -14 -9 -7 3 -13 9 -13 14 0 5 6 9 13
9 8 0 14 -6 14 -14z m6151 -104 c6 -18 -15 -14 -22 4 -4 10 -1 14 6 12 6 -2
14 -10 16 -16z m-6135 -6 c4 -10 1 -13 -9 -9 -15 6 -19 23 -5 23 5 0 11 -7 14
-14z m40 -40 c4 -10 1 -13 -9 -9 -7 3 -14 0 -14 -6 0 -6 5 -11 10 -11 6 0 10
-4 10 -10 0 -12 -10 -13 -28 -1 -12 7 -12 12 -1 30 16 25 25 27 32 7z m5865
-266 c-7 -10 -14 -17 -17 -15 -4 4 18 35 25 35 2 0 -1 -9 -8 -20z m-5504 -196
c3 -8 1 -14 -4 -14 -6 0 -10 5 -10 11 0 6 -7 8 -16 5 -9 -3 -21 -3 -27 1 -7 4
-3 9 9 13 23 9 41 3 48 -16z m5296 -4 c0 -5 -8 -10 -17 -10 -15 0 -16 2 -3 10
19 12 20 12 20 0z m-155 -50 c-10 -11 -21 -18 -23 -15 -3 3 3 12 14 20 27 20
30 18 9 -5z m-5045 0 c0 -5 -4 -10 -10 -10 -5 0 -10 5 -10 10 0 6 5 10 10 10
6 0 10 -4 10 -10z m135 -8 c-3 -3 -11 0 -18 7 -9 10 -8 11 6 5 10 -3 15 -9 12
-12z m1845 -66 c0 -3 -4 -8 -10 -11 -5 -3 -10 -1 -10 4 0 6 5 11 10 11 6 0 10
-2 10 -4z m2910 -6 c0 -5 -5 -10 -11 -10 -5 0 -7 5 -4 10 3 6 8 10 11 10 2 0
4 -4 4 -10z m-3160 -15 c7 -9 8 -15 2 -15 -5 0 -12 7 -16 15 -3 8 -4 15 -2 15
2 0 9 -7 16 -15z m382 -3 c-7 -2 -9 -9 -6 -15 5 -9 4 -9 -6 0 -15 13 -4 37 13
26 8 -5 8 -8 -1 -11z m2728 -26 c0 -5 -9 -1 -20 9 -11 10 -20 22 -20 26 0 5 9
1 20 -8 11 -10 20 -22 20 -27z m-4440 24 c0 -5 -4 -10 -10 -10 -5 0 -10 5 -10
10 0 6 5 10 10 10 6 0 10 -4 10 -10z m70 0 c0 -5 -4 -10 -10 -10 -5 0 -10 5
-10 10 0 6 5 10 10 10 6 0 10 -4 10 -10z m2113 -5 c17 5 19 4 7 -4 -12 -8 -13
-14 -3 -30 8 -12 9 -22 3 -26 -5 -3 -14 3 -20 14 -6 11 -17 18 -24 15 -8 -3
-19 3 -25 14 -13 25 -4 34 21 21 10 -6 29 -7 41 -4z m187 5 c0 -5 -8 -10 -17
-10 -15 0 -16 2 -3 10 19 12 20 12 20 0z m330 1 c0 -5 -7 -12 -16 -15 -14 -5
-15 -4 -4 9 14 17 20 19 20 6z m-2349 -50 c-14 -19 -27 -28 -37 -24 -11 4 -12
9 -3 19 6 8 18 14 25 14 8 0 14 10 14 22 0 16 3 19 11 11 9 -9 6 -19 -10 -42z
m139 39 c0 -5 -2 -10 -4 -10 -3 0 -8 5 -11 10 -3 6 -1 10 4 10 6 0 11 -4 11
-10z m194 -6 c3 -8 2 -12 -4 -9 -6 3 -10 10 -10 16 0 14 7 11 14 -7z m1336 12
c0 -11 -19 -15 -25 -6 -3 5 1 10 9 10 9 0 16 -2 16 -4z m741 -13 c13 -16 12
-17 -4 -4 -14 11 -21 11 -29 3 -7 -7 -16 -12 -22 -12 -10 0 24 29 35 30 4 0
13 -8 20 -17z m426 11 c-3 -3 -12 -4 -19 -1 -8 3 -5 6 6 6 11 1 17 -2 13 -5z
m222 -5 c-6 -4 -8 -12 -5 -18 10 -16 2 -13 -22 7 l-21 19 30 0 c16 0 25 -4 18
-8z m71 7 c0 -3 -4 -8 -10 -11 -5 -3 -10 -1 -10 4 0 6 5 11 10 11 6 0 10 -2
10 -4z m80 -28 c0 -5 -9 -3 -20 4 -11 7 -20 16 -20 20 0 5 9 3 20 -4 11 -7 20
-16 20 -20z m-3595 12 c3 -5 -3 -10 -15 -10 -12 0 -18 5 -15 10 3 6 10 10 15
10 5 0 12 -4 15 -10z m1038 -4 c4 -10 1 -13 -8 -9 -8 3 -12 9 -9 14 7 12 11
11 17 -5z m152 4 c-3 -5 -11 -10 -16 -10 -6 0 -7 5 -4 10 3 6 11 10 16 10 6 0
7 -4 4 -10z m155 0 c0 -5 -4 -10 -10 -10 -5 0 -10 5 -10 10 0 6 5 10 10 10 6
0 10 -4 10 -10z m54 2 c2 -4 -7 -8 -22 -9 -24 -2 -24 -1 -7 7 11 5 21 9 22 9
1 1 4 -3 7 -7z m1036 -2 c0 -5 -4 -10 -10 -10 -5 0 -10 5 -10 10 0 6 5 10 10
10 6 0 10 -4 10 -10z m140 -11 c0 -6 -4 -7 -10 -4 -5 3 -10 11 -10 16 0 6 5 7
10 4 6 -3 10 -11 10 -16z m537 -25 c-10 -10 -37 10 -37 27 0 18 1 18 21 -2 11
-11 19 -23 16 -25z m-797 26 c0 -5 -5 -10 -11 -10 -5 0 -7 5 -4 10 3 6 8 10
11 10 2 0 4 -4 4 -10z m1170 0 c0 -5 -2 -10 -4 -10 -3 0 -8 5 -11 10 -3 6 -1
10 4 10 6 0 11 -4 11 -10z m-3520 -20 c0 -5 -7 -7 -15 -4 -8 4 -12 10 -9 15 6
11 24 2 24 -11z m794 -12 c6 -4 7 -10 3 -15 -10 -9 -27 16 -26 37 1 13 1 13 6
0 3 -8 11 -18 17 -22z m386 17 c11 -13 10 -14 -4 -9 -9 3 -16 10 -16 15 0 13
6 11 20 -6z m75 -3 c-3 -3 -11 0 -18 7 -9 10 -8 11 6 5 10 -3 15 -9 12 -12z
m1440 -20 c-6 -7 -35 18 -35 31 0 5 9 2 20 -8 11 -10 18 -20 15 -23z m1375 28
c0 -13 -11 -13 -30 0 -12 8 -11 10 8 10 12 0 22 -4 22 -10z m-3560 -10 c0 -5
-2 -10 -4 -10 -3 0 -8 5 -11 10 -3 6 -1 10 4 10 6 0 11 -4 11 -10z m233 -6
c-7 -18 -31 -25 -39 -12 -5 7 -2 8 6 3 9 -6 12 -4 8 6 -4 10 1 15 12 15 10 0
16 -6 13 -12z m77 6 c0 -5 -2 -10 -4 -10 -3 0 -8 5 -11 10 -3 6 -1 10 4 10 6
0 11 -4 11 -10z m150 -11 c0 -5 -4 -9 -10 -9 -5 0 -10 7 -10 16 0 8 5 12 10 9
6 -3 10 -10 10 -16z m1220 12 c0 -5 10 -12 23 -14 15 -4 13 -5 -7 -4 -27 2
-52 27 -27 27 6 0 11 -4 11 -9z m-1642 -23 c-6 -18 -28 -21 -28 -4 0 9 7 16
16 16 9 0 14 -5 12 -12z m3166 -4 c3 -8 2 -12 -4 -9 -6 3 -10 10 -10 16 0 14
7 11 14 -7z m121 -14 c3 -5 -1 -10 -9 -10 -8 0 -18 5 -21 10 -3 6 1 10 9 10 8
0 18 -4 21 -10z"/>
<path d="M5007 1424 c3 -7 9 -14 14 -14 14 0 10 17 -5 23 -10 4 -13 1 -9 -9z"/>
<path d="M8330 6990 c0 -5 5 -10 10 -10 6 0 10 5 10 10 0 6 -4 10 -10 10 -5 0
-10 -4 -10 -10z"/>
<path d="M8296 6972 c-3 -5 1 -9 9 -9 8 0 12 4 9 9 -3 4 -7 8 -9 8 -2 0 -6 -4
-9 -8z"/>
<path d="M1857 6908 c4 -7 8 -17 8 -22 0 -5 8 -10 19 -12 16 -2 16 0 -5 22
-24 26 -35 32 -22 12z"/>
<path d="M1840 6829 c-11 -19 -10 -20 9 -9 12 6 21 15 21 20 0 18 -19 11 -30
-11z"/>
<path d="M8320 6820 c0 -5 5 -10 11 -10 5 0 7 5 4 10 -3 6 -8 10 -11 10 -2 0
-4 -4 -4 -10z"/>
<path d="M8418 6813 c7 -3 16 -2 19 1 4 3 -2 6 -13 5 -11 0 -14 -3 -6 -6z"/>
<path d="M8317 6769 c7 -9 10 -19 6 -22 -3 -4 -1 -7 5 -7 17 0 15 16 -5 31
-16 12 -17 12 -6 -2z"/>
<path d="M8280 6760 c0 -5 5 -10 11 -10 5 0 7 5 4 10 -3 6 -8 10 -11 10 -2 0
-4 -4 -4 -10z"/>
<path d="M5129 6737 c-90 -34 -151 -96 -170 -174 -6 -22 -8 -213 -7 -443 l3
-405 -560 3 c-308 1 -643 -2 -745 -6 -171 -8 -190 -11 -247 -37 -125 -56 -212
-186 -233 -346 -13 -105 -13 -422 0 -513 19 -129 99 -253 208 -323 109 -70 62
-66 852 -72 l715 -6 2 -90 c2 -49 4 -232 6 -405 3 -345 4 -350 67 -429 63 -78
169 -111 261 -80 55 19 103 63 504 459 366 363 687 673 954 925 70 66 140 137
156 159 39 53 45 118 15 175 -19 38 -405 427 -1410 1419 -80 79 -164 155 -187
169 -51 30 -133 39 -184 20z m925 -1124 l549 -552 -54 -58 c-30 -32 -130 -132
-224 -223 -93 -90 -374 -366 -622 -614 -299 -298 -456 -447 -462 -441 -7 7
-11 172 -13 437 -3 410 -4 427 -23 448 -48 54 -33 53 -810 56 -453 1 -742 6
-779 13 -68 12 -114 44 -161 110 l-30 43 2 244 c3 269 4 271 69 343 l34 38
798 -5 c440 -3 810 -2 824 1 14 4 37 19 51 33 l27 27 0 443 c0 243 3 450 7
459 5 14 34 -11 136 -116 72 -74 378 -382 681 -686z"/>
<path d="M8256 6735 c-3 -9 0 -15 9 -15 16 0 20 16 6 24 -5 3 -11 -1 -15 -9z"/>
<path d="M8260 6596 c0 -71 4 -116 10 -116 6 0 10 14 11 30 0 17 1 51 1 77 1
32 6 52 17 59 14 11 13 15 -12 39 l-27 28 0 -117z"/>
<path d="M8370 6696 c0 -2 7 -7 16 -10 8 -3 12 -2 9 4 -6 10 -25 14 -25 6z"/>
<path d="M8330 6666 c0 -2 8 -10 18 -17 15 -13 16 -12 3 4 -13 16 -21 21 -21
13z"/>
<path d="M8315 6630 c4 -6 11 -8 16 -5 14 9 11 15 -7 15 -8 0 -12 -5 -9 -10z"/>
<path d="M1865 6610 c-3 -5 -1 -10 4 -10 6 0 11 5 11 10 0 6 -2 10 -4 10 -3 0
-8 -4 -11 -10z"/>
<path d="M8345 6610 c3 -5 8 -10 11 -10 2 0 4 5 4 10 0 6 -5 10 -11 10 -5 0
-7 -4 -4 -10z"/>
<path d="M8400 6610 c0 -5 5 -10 11 -10 5 0 7 5 4 10 -3 6 -8 10 -11 10 -2 0
-4 -4 -4 -10z"/>
<path d="M8360 6581 c0 -5 9 -11 19 -14 14 -3 18 -1 14 9 -6 15 -33 19 -33 5z"/>
<path d="M1832 6564 c-7 -8 -8 -14 -3 -14 10 0 25 19 20 25 -2 1 -10 -3 -17
-11z"/>
<path d="M8335 6560 c-3 -5 -1 -10 4 -10 6 0 11 5 11 10 0 6 -2 10 -4 10 -3 0
-8 -4 -11 -10z"/>
<path d="M8294 6539 c0 -10 4 -15 9 -12 4 2 16 -1 25 -8 15 -12 15 -12 -1 7
-9 11 -15 23 -12 26 3 2 -1 5 -8 5 -7 0 -13 -8 -13 -18z"/>
<path d="M8276 6467 c-18 -19 -19 -43 -20 -561 0 -298 1 -879 2 -1293 2 -716
3 -751 20 -746 13 3 18 14 18 45 1 36 -1 39 -13 22 -12 -16 -13 -15 -13 13 0
36 26 65 36 39 9 -23 28 -20 39 6 10 22 35 37 35 21 0 -5 -9 -19 -21 -32 -12
-12 -18 -25 -14 -29 3 -4 11 1 16 10 5 9 16 24 25 33 14 13 14 17 0 30 -20 20
-33 19 -41 -5 -7 -21 -25 -28 -25 -10 0 6 5 10 10 10 6 0 10 6 10 14 0 7 7 19
15 26 18 15 11 30 -16 30 -10 0 -19 5 -19 10 0 15 11 12 45 -10 37 -25 55 -25
54 -2 0 10 -3 12 -6 4 -2 -6 -9 -10 -13 -7 -5 3 -7 12 -3 20 3 8 1 15 -5 15
-6 0 -12 -4 -14 -9 -1 -5 -11 -3 -22 4 -17 13 -17 15 -3 29 15 16 47 12 47 -5
0 -5 5 -9 10 -9 18 0 11 18 -10 25 -11 3 -20 12 -20 19 0 7 -9 21 -19 30 -16
15 -18 22 -8 36 8 14 15 16 28 9 32 -17 30 -9 -8 27 -29 28 -34 37 -22 45 8 5
10 9 4 9 -5 0 7 12 27 26 21 15 35 31 32 36 -3 5 -14 2 -23 -6 -10 -9 -21 -13
-24 -9 -4 3 -7 1 -7 -5 0 -7 -5 -12 -11 -12 -8 0 -7 5 1 15 11 13 9 21 -9 45
-12 17 -18 30 -13 30 14 0 43 -36 35 -43 -3 -4 1 -7 10 -7 21 0 22 19 2 26 -8
4 -15 12 -15 20 0 19 10 18 25 -3 7 -10 17 -13 25 -8 10 6 8 10 -8 16 -25 10
-29 29 -6 29 8 0 12 5 9 10 -3 6 1 10 9 10 21 0 20 10 -1 26 -17 12 -16 13 6
22 18 6 21 11 11 17 -8 5 -18 2 -25 -9 -8 -10 -19 -14 -29 -10 -14 6 -14 9 5
25 12 11 19 22 14 27 -4 4 -10 1 -12 -5 -3 -7 -11 -13 -18 -13 -7 0 -15 -6
-18 -12 -3 -10 -9 -8 -24 5 -11 9 -22 15 -24 12 -3 -2 -6 10 -7 28 -2 17 -7
36 -12 41 -13 13 -13 29 0 21 11 -7 8 21 -5 60 -6 16 -5 17 4 5 12 -17 14 -12
13 49 0 23 2 30 8 21 4 -7 6 -19 3 -27 -3 -7 4 -22 16 -32 12 -11 19 -25 16
-34 -4 -8 1 -22 11 -31 21 -22 11 -32 -14 -15 -13 9 -18 23 -16 41 1 15 -2 31
-8 34 -8 5 -9 1 -5 -10 4 -10 3 -15 -3 -11 -11 7 -14 -8 -3 -18 3 -4 8 -28 9
-54 2 -26 6 -53 8 -60 9 -21 32 -15 46 13 9 17 20 24 32 21 10 -3 18 -1 18 4
0 18 -38 9 -52 -13 -8 -12 -19 -18 -26 -14 -15 9 -16 46 -1 46 5 0 7 -4 4 -10
-3 -5 -1 -10 5 -10 6 0 13 7 16 15 4 8 12 15 19 15 7 0 18 7 25 15 8 9 8 15 2
15 -6 0 -12 -4 -14 -10 -2 -6 -9 -5 -18 1 -11 8 -12 12 -2 16 6 2 9 9 6 15 -4
6 -10 5 -15 -3 -11 -18 -21 -6 -13 15 8 20 30 21 38 0 3 -8 10 -12 16 -9 6 4
8 11 5 16 -4 5 1 9 9 9 20 0 20 10 0 25 -15 10 -15 13 0 27 20 20 20 28 1 28
-9 0 -12 6 -9 15 4 8 10 13 14 10 4 -2 16 5 26 18 10 12 12 16 4 10 -8 -7 -20
-13 -28 -13 -18 0 -43 -26 -34 -35 4 -5 -1 -5 -11 -2 -11 4 -20 1 -24 -9 -9
-23 5 -29 26 -10 12 11 21 14 26 7 3 -6 1 -11 -5 -11 -6 0 -9 -4 -5 -9 3 -5
-3 -11 -12 -14 -15 -3 -14 -6 6 -14 19 -7 21 -12 11 -18 -9 -5 -15 -4 -18 3
-5 16 -29 15 -36 0 -3 -7 -4 -4 -3 7 1 12 -3 19 -12 17 -10 -2 -12 4 -8 20 5
16 0 29 -16 43 -12 11 -23 27 -25 35 -2 10 4 7 18 -7 25 -27 30 -28 30 -7 0 8
-4 12 -10 9 -5 -3 -10 -2 -10 4 0 19 17 20 30 0 8 -10 21 -19 28 -19 8 0 -1
16 -22 37 -40 41 -44 53 -19 53 9 0 13 -3 10 -7 -9 -9 23 -43 40 -43 8 0 11
-4 8 -10 -9 -15 31 -12 43 3 13 16 -11 40 -26 25 -7 -7 -17 -6 -32 2 -17 9
-19 15 -11 23 9 9 14 8 21 -3 5 -8 12 -11 16 -7 7 7 -12 27 -55 57 -12 8 -19
20 -17 27 3 6 -2 14 -10 17 -11 4 -14 0 -12 -12 1 -9 -1 -23 -6 -31 -5 -8 -4
-16 4 -21 10 -6 9 -13 -5 -31 l-17 -24 5 28 c2 15 0 30 -4 33 -14 8 -11 24 4
21 7 -1 10 6 8 18 -2 11 -5 59 -5 107 -1 49 -4 88 -8 88 -5 0 -8 11 -8 25 0
14 3 25 8 25 4 0 6 35 6 78 -1 42 2 84 7 92 9 16 11 12 13 -32 1 -15 -2 -24
-6 -22 -4 3 -8 1 -8 -5 0 -16 18 -22 27 -9 12 19 11 62 -2 73 -7 6 -9 20 -5
35 l6 25 7 -27 c7 -26 27 -40 27 -18 0 6 -4 10 -10 10 -16 0 -11 27 6 34 9 4
14 9 11 13 -4 3 -13 0 -22 -7 -11 -9 -15 -9 -15 -1 0 7 -4 9 -10 6 -5 -3 -10
-17 -10 -29 0 -13 -7 -29 -15 -36 -13 -11 -15 -7 -15 29 0 22 5 42 10 42 6 1
15 3 20 4 6 1 17 3 27 4 12 1 7 10 -19 35 -32 31 -35 39 -34 89 0 30 4 53 9
50 11 -7 9 11 -3 23 -8 8 -6 15 5 24 18 15 20 34 3 24 -9 -6 -9 -3 0 9 8 9 11
21 7 26 -3 7 0 8 9 5 18 -7 22 -24 5 -24 -5 0 -7 -5 -4 -11 5 -6 13 -2 22 11
14 19 13 23 -3 35 -11 8 -22 15 -26 15 -4 0 -6 12 -6 28 1 50 -2 61 -15 57 -9
-4 -12 9 -11 52 1 32 4 67 7 78 3 11 6 24 6 29 1 5 4 6 8 2 4 -4 6 -23 4 -42
-2 -33 11 -46 25 -22 4 7 3 8 -4 4 -8 -5 -12 0 -12 13 0 23 15 28 23 9 3 -7 8
2 12 20 8 33 19 41 29 20 4 -10 7 -9 15 2 6 8 15 22 21 30 9 13 11 13 20 0 5
-8 10 -11 10 -6 0 5 7 3 15 -4 8 -7 12 -16 9 -21 -3 -5 -1 -9 4 -9 6 0 12 7
16 15 3 8 2 14 -2 13 -4 -2 -18 5 -32 14 -25 16 -56 18 -77 5 -6 -4 -14 -3
-18 3 -3 5 -1 10 4 10 6 0 11 5 11 11 0 8 -5 7 -16 -2 -9 -7 -27 -15 -39 -16
-18 -3 -22 1 -20 14 2 10 4 26 4 36 1 9 5 17 11 17 5 0 7 -13 5 -29 -2 -23 0
-28 11 -24 8 3 11 9 8 14 -3 5 1 9 8 9 9 0 9 3 2 8 -13 9 -27 45 -15 37 16 -9
25 16 10 26 -11 7 -7 16 19 39 32 30 41 50 22 50 -6 0 -13 -7 -16 -15 -4 -8
-12 -15 -20 -15 -17 0 -18 17 -1 23 6 3 1 5 -13 4 -14 -1 -29 -6 -33 -12 -5
-6 -7 -3 -3 8 3 9 1 17 -4 17 -6 0 -10 9 -10 20 0 11 5 19 12 18 13 -3 17 44
4 53 -4 4 -3 9 3 13 6 4 13 -4 17 -18 3 -13 13 -27 22 -31 14 -5 14 -7 2 -15
-13 -8 -13 -12 3 -27 10 -11 17 -13 17 -5 0 7 -5 12 -12 12 -9 0 -9 3 0 12 10
10 15 10 22 -1 7 -12 11 -12 24 2 16 15 15 19 -12 47 -16 16 -33 30 -37 30 -5
0 4 -13 20 -30 16 -16 25 -33 20 -37 -4 -5 -10 -2 -12 5 -3 6 -10 12 -17 12
-7 0 -18 11 -24 25 -15 33 -15 48 -1 39 8 -5 8 -1 0 14 -16 30 -24 31 -45 9z
m34 -6 c0 -5 -7 -11 -14 -14 -10 -4 -13 -1 -9 9 6 15 23 19 23 5z m-3 -203
c-3 -8 -6 -5 -6 6 -1 11 2 17 5 13 3 -3 4 -12 1 -19z m33 -169 c0 -4 -7 -6
-15 -3 -8 4 -15 1 -15 -5 0 -6 5 -11 10 -11 6 0 10 -5 10 -10 0 -6 -11 -3 -24
5 -23 15 -25 15 -35 -2 -9 -16 -10 -15 -7 7 2 19 8 24 25 22 11 -2 21 1 21 7
0 6 7 8 15 5 8 -4 15 -10 15 -15z m40 1 c0 -5 -4 -10 -10 -10 -5 0 -10 5 -10
10 0 6 5 10 10 10 6 0 10 -4 10 -10z m-103 -282 c-3 -8 -6 -5 -6 6 -1 11 2 17
5 13 3 -3 4 -12 1 -19z m27 -276 c3 -5 -1 -9 -9 -9 -8 0 -12 4 -9 9 3 4 7 8 9
8 2 0 6 -4 9 -8z m56 -583 c0 -14 -16 -11 -29 5 -10 12 -8 13 8 9 12 -3 21 -9
21 -14z m60 -59 c0 -5 -4 -10 -10 -10 -5 0 -10 5 -10 10 0 6 5 10 10 10 6 0
10 -4 10 -10z m-143 -117 c-3 -10 -5 -2 -5 17 0 19 2 27 5 18 2 -10 2 -26 0
-35z m47 -220 c4 -4 15 -8 23 -8 21 0 28 -21 9 -28 -7 -3 -24 5 -37 19 -19 21
-15 37 5 17z m58 -63 c-18 -16 -37 -30 -43 -30 -17 0 43 58 60 59 8 1 0 -12
-17 -29z m-72 -14 c0 -3 -4 -8 -10 -11 -5 -3 -10 -1 -10 4 0 6 5 11 10 11 6 0
10 -2 10 -4z m21 -239 c-10 -9 -11 -8 -5 6 3 10 9 15 12 12 3 -3 0 -11 -7 -18z
m-29 -33 c-9 -16 -10 -14 -9 8 1 15 6 23 11 18 4 -4 4 -16 -2 -26z m19 -41
c12 -16 12 -17 -2 -6 -9 7 -20 9 -24 5 -5 -4 -5 -1 -1 6 9 16 11 15 27 -5z
m19 -98 c-7 -9 -15 -13 -17 -11 -7 7 7 26 19 26 6 0 6 -6 -2 -15z"/>
<path d="M8360 6481 c0 -7 -5 -9 -12 -5 -7 5 -8 3 -3 -5 5 -9 10 -10 18 -2 6
6 8 14 4 18 -4 3 -7 1 -7 -6z"/>
<path d="M8397 6470 c-9 -11 -13 -20 -9 -20 4 0 15 9 25 20 9 11 13 20 9 20
-4 0 -15 -9 -25 -20z"/>
<path d="M1830 6463 c0 -6 5 -15 10 -18 17 -11 11 -35 -7 -29 -10 2 -8 -1 5
-8 19 -9 25 -9 33 3 12 19 11 29 -2 29 -7 0 -18 8 -25 18 -7 9 -14 12 -14 5z"/>
<path d="M8395 6410 c3 -5 8 -10 11 -10 2 0 4 5 4 10 0 6 -5 10 -11 10 -5 0
-7 -4 -4 -10z"/>
<path d="M8420 6390 c0 -5 5 -10 10 -10 6 0 10 5 10 10 0 6 -4 10 -10 10 -5 0
-10 -4 -10 -10z"/>
<path d="M8390 6270 c0 -5 5 -10 10 -10 6 0 10 5 10 10 0 6 -4 10 -10 10 -5 0
-10 -4 -10 -10z"/>
<path d="M8358 6249 c-10 -5 -18 -14 -18 -19 0 -17 15 -11 28 10 14 23 13 23
-10 9z"/>
<path d="M8367 6206 c-14 -13 -29 -21 -33 -17 -4 3 -4 0 0 -7 5 -9 12 -9 28
-1 16 9 23 8 30 -2 5 -9 6 -4 2 15 -5 21 -4 27 5 22 6 -4 11 -2 11 3 0 17 -15
13 -43 -13z"/>
<path d="M8440 6126 c0 -2 7 -7 16 -10 8 -3 12 -2 9 4 -6 10 -25 14 -25 6z"/>
<path d="M8350 6036 c0 -2 7 -6 15 -10 8 -3 15 -1 15 4 0 6 -7 10 -15 10 -8 0
-15 -2 -15 -4z"/>
<path d="M8410 6031 c0 -6 4 -13 10 -16 6 -3 7 1 4 9 -7 18 -14 21 -14 7z"/>
<path d="M8322 5980 c-16 -26 -15 -60 2 -60 18 0 29 29 16 45 -6 8 -6 15 2 23
7 7 8 12 2 12 -5 0 -15 -9 -22 -20z"/>
<path d="M8355 5970 c3 -5 8 -10 11 -10 2 0 4 5 4 10 0 6 -5 10 -11 10 -5 0
-7 -4 -4 -10z"/>
<path d="M8410 5970 c0 -5 5 -10 11 -10 5 0 7 5 4 10 -3 6 -8 10 -11 10 -2 0
-4 -4 -4 -10z"/>
<path d="M8357 5929 l-28 -28 22 -22 c17 -17 23 -19 30 -8 4 7 12 10 16 5 4
-5 2 -11 -4 -13 -18 -6 -16 -23 2 -23 8 0 15 -4 15 -10 0 -5 -7 -10 -15 -10
-8 0 -15 5 -15 10 0 6 -4 10 -10 10 -17 0 -11 -15 12 -29 16 -10 23 -10 26 -2
2 6 10 11 17 11 7 0 15 6 18 14 4 10 0 12 -14 9 -10 -3 -19 0 -19 6 0 6 5 11
12 11 6 0 3 7 -8 15 -19 15 -19 15 0 30 11 8 17 17 14 21 -4 3 -16 -4 -27 -15
-23 -23 -41 -27 -41 -10 0 14 26 39 40 39 6 0 8 5 5 10 -9 14 -16 11 -48 -21z"/>
<path d="M1750 5934 c0 -5 9 -15 20 -22 12 -7 19 -16 16 -21 -3 -4 3 -14 12
-22 29 -25 42 -31 42 -19 0 6 -11 15 -24 21 -15 7 -22 17 -19 26 5 11 9 11 27
-4 20 -18 20 -17 6 1 -14 18 -13 19 3 13 24 -9 21 0 -4 14 -17 9 -23 8 -30 -2
-6 -10 -12 -9 -28 5 -12 11 -21 15 -21 10z"/>
<path d="M8300 5902 c0 -7 9 -20 20 -29 24 -20 26 -38 5 -29 -24 9 -17 -11 11
-33 l26 -20 -21 -22 c-25 -27 -26 -35 -5 -43 8 -3 12 -11 8 -17 -5 -8 -13 -4
-25 12 -15 19 -19 21 -19 7 0 -21 47 -74 57 -64 4 4 1 11 -7 17 -13 8 -13 11
3 23 15 12 16 14 2 20 -8 3 -15 13 -15 21 0 9 5 13 10 10 6 -3 10 1 10 9 0 9
8 16 18 16 13 1 11 6 -12 26 -23 21 -26 28 -15 35 11 7 7 15 -18 41 -18 18
-33 27 -33 20z"/>
<path d="M8500 5891 c0 -5 5 -13 10 -16 6 -3 10 -2 10 4 0 5 -4 13 -10 16 -5
3 -10 2 -10 -4z"/>
<path d="M8470 5870 c0 -5 5 -10 11 -10 5 0 7 5 4 10 -3 6 -8 10 -11 10 -2 0
-4 -4 -4 -10z"/>
<path d="M1785 5850 c10 -11 20 -20 23 -20 3 0 -3 9 -13 20 -10 11 -20 20 -23
20 -3 0 3 -9 13 -20z"/>
<path d="M1777 5814 c3 -8 -1 -14 -11 -14 -9 0 -16 -4 -16 -8 0 -15 27 -9 38
9 8 13 8 18 -3 23 -9 3 -12 0 -8 -10z"/>
<path d="M1725 5810 c3 -5 8 -10 11 -10 2 0 4 5 4 10 0 6 -5 10 -11 10 -5 0
-7 -4 -4 -10z"/>
<path d="M1813 5805 c-8 -9 -9 -16 -3 -20 6 -3 10 -1 10 4 0 6 3 10 8 9 4 -2
8 1 10 7 5 15 -12 16 -25 0z"/>
<path d="M8420 5779 c0 -5 5 -7 10 -4 6 3 10 8 10 11 0 2 -4 4 -10 4 -5 0 -10
-5 -10 -11z"/>
<path d="M8470 5780 c0 -5 5 -10 10 -10 6 0 10 5 10 10 0 6 -4 10 -10 10 -5 0
-10 -4 -10 -10z"/>
<path d="M8395 5760 c3 -5 8 -10 11 -10 2 0 4 5 4 10 0 6 -5 10 -11 10 -5 0
-7 -4 -4 -10z"/>
<path d="M8365 5740 c-3 -5 -1 -10 4 -10 6 0 11 5 11 10 0 6 -2 10 -4 10 -3 0
-8 -4 -11 -10z"/>
<path d="M1810 5725 c10 -12 10 -18 0 -30 -9 -10 -9 -15 -1 -15 6 0 11 5 11
11 0 8 5 8 15 -1 13 -10 15 -9 15 9 0 12 -6 21 -15 21 -8 0 -15 5 -15 10 0 6
-5 10 -11 10 -8 0 -8 -5 1 -15z"/>
<path d="M8395 5710 c3 -5 11 -10 16 -10 6 0 7 5 4 10 -3 6 -11 10 -16 10 -6
0 -7 -4 -4 -10z"/>
<path d="M8370 5690 c0 -5 5 -10 11 -10 5 0 7 5 4 10 -3 6 -8 10 -11 10 -2 0
-4 -4 -4 -10z"/>
<path d="M8290 5651 c-6 -16 -9 -39 -5 -51 8 -26 75 -94 83 -85 4 3 0 10 -8
15 -11 7 -12 10 -2 10 7 0 11 4 7 9 -3 6 5 20 18 33 13 13 29 31 36 40 10 14
9 16 -9 11 -13 -3 -19 -11 -16 -19 3 -8 -1 -14 -10 -14 -9 0 -18 -9 -21 -20
-3 -11 -12 -20 -19 -20 -20 0 -17 14 6 35 11 10 18 20 15 23 -2 3 3 10 12 17
10 8 12 14 5 19 -6 3 -19 -7 -28 -24 -20 -32 -34 -39 -34 -15 0 8 5 15 10 15
15 0 12 19 -4 36 -20 19 -22 18 -36 -15z m13 -21 c-4 -13 1 -26 13 -35 17 -13
17 -14 2 -15 -19 0 -35 41 -23 59 10 17 14 13 8 -9z"/>
<path d="M8395 5660 c3 -5 8 -10 11 -10 2 0 4 5 4 10 0 6 -5 10 -11 10 -5 0
-7 -4 -4 -10z"/>
<path d="M8445 5660 c3 -5 8 -10 11 -10 2 0 4 5 4 10 0 6 -5 10 -11 10 -5 0
-7 -4 -4 -10z"/>
<path d="M1838 5640 c10 -12 18 -16 21 -9 2 6 -3 15 -10 20 -24 15 -29 10 -11
-11z"/>
<path d="M1822 5608 c-7 -7 -12 -16 -12 -21 0 -5 7 -1 16 8 9 9 14 18 12 20
-2 3 -10 -1 -16 -7z"/>
<path d="M8425 5590 c3 -5 8 -10 11 -10 2 0 4 5 4 10 0 6 -5 10 -11 10 -5 0
-7 -4 -4 -10z"/>
<path d="M8452 5574 c-18 -12 -26 -13 -37 -4 -24 20 -17 -1 7 -21 23 -21 32
-24 23 -9 -4 6 4 19 17 30 28 23 21 26 -10 4z"/>
<path d="M1830 5560 c0 -15 -5 -20 -14 -17 -10 4 -13 1 -9 -9 4 -11 9 -12 18
-4 8 7 15 7 19 1 3 -5 0 -12 -6 -14 -8 -4 -7 -6 4 -6 24 -1 31 14 13 29 -8 7
-13 16 -10 20 3 5 1 11 -5 15 -6 3 -10 -3 -10 -15z"/>
<path d="M8380 5546 c0 -9 5 -16 10 -16 6 0 10 4 10 9 0 6 -4 13 -10 16 -5 3
-10 -1 -10 -9z"/>
<path d="M1760 5540 c0 -5 5 -10 10 -10 6 0 10 5 10 10 0 6 -4 10 -10 10 -5 0
-10 -4 -10 -10z"/>
<path d="M8465 5530 c3 -5 8 -10 11 -10 2 0 4 5 4 10 0 6 -5 10 -11 10 -5 0
-7 -4 -4 -10z"/>
<path d="M8285 5489 c-4 -6 -5 -12 -2 -15 2 -3 7 2 10 11 7 17 1 20 -8 4z"/>
<path d="M8380 5490 c0 -5 5 -10 10 -10 6 0 10 5 10 10 0 6 -4 10 -10 10 -5 0
-10 -4 -10 -10z"/>
<path d="M8430 5490 c0 -5 5 -10 11 -10 5 0 7 5 4 10 -3 6 -8 10 -11 10 -2 0
-4 -4 -4 -10z"/>
<path d="M8360 5470 c0 -5 5 -10 11 -10 5 0 7 5 4 10 -3 6 -8 10 -11 10 -2 0
-4 -4 -4 -10z"/>
<path d="M8455 5470 c-3 -5 -1 -10 4 -10 6 0 11 5 11 10 0 6 -2 10 -4 10 -3 0
-8 -4 -11 -10z"/>
<path d="M8390 5445 c0 -8 4 -15 10 -15 5 0 7 7 4 15 -4 8 -8 15 -10 15 -2 0
-4 -7 -4 -15z"/>
<path d="M8435 5440 c3 -5 11 -10 16 -10 6 0 7 5 4 10 -3 6 -11 10 -16 10 -6
0 -7 -4 -4 -10z"/>
<path d="M8355 5410 c3 -5 11 -10 16 -10 6 0 7 5 4 10 -3 6 -11 10 -16 10 -6
0 -7 -4 -4 -10z"/>
<path d="M8411 5417 c2 -1 13 -9 24 -17 19 -14 19 -14 6 3 -7 9 -18 17 -24 17
-6 0 -8 -1 -6 -3z"/>
<path d="M8330 5389 c0 -5 5 -7 10 -4 6 3 10 8 10 11 0 2 -4 4 -10 4 -5 0 -10
-5 -10 -11z"/>
<path d="M8395 5390 c3 -5 8 -10 11 -10 2 0 4 5 4 10 0 6 -5 10 -11 10 -5 0
-7 -4 -4 -10z"/>
<path d="M8370 5370 c0 -6 7 -10 15 -10 8 0 15 2 15 4 0 2 -7 6 -15 10 -8 3
-15 1 -15 -4z"/>
<path d="M8401 5350 c-13 -11 -18 -20 -12 -20 7 0 21 9 33 20 28 26 10 26 -21
0z"/>
<path d="M8345 5350 c3 -5 8 -10 11 -10 2 0 4 5 4 10 0 6 -5 10 -11 10 -5 0
-7 -4 -4 -10z"/>
<path d="M8316 5324 c-3 -8 -9 -13 -14 -10 -4 2 -8 -7 -7 -22 1 -29 17 -32 41
-8 11 12 11 15 -2 20 -13 5 -14 9 -4 21 7 9 8 15 2 15 -5 0 -13 -7 -16 -16z"/>
<path d="M8358 5313 c6 -2 18 -2 25 0 6 3 1 5 -13 5 -14 0 -19 -2 -12 -5z"/>
<path d="M8470 5316 c0 -2 8 -10 18 -17 15 -13 16 -12 3 4 -13 16 -21 21 -21
13z"/>
<path d="M8390 5290 c0 -5 5 -10 10 -10 6 0 10 5 10 10 0 6 -4 10 -10 10 -5 0
-10 -4 -10 -10z"/>
<path d="M1790 5285 c0 -5 5 -17 10 -25 5 -8 10 -10 10 -5 0 6 -5 17 -10 25
-5 8 -10 11 -10 5z"/>
<path d="M8420 5270 c0 -5 5 -10 11 -10 5 0 7 5 4 10 -3 6 -8 10 -11 10 -2 0
-4 -4 -4 -10z"/>
<path d="M8330 5249 c0 -5 -4 -7 -10 -4 -6 3 -7 -1 -4 -9 3 -9 10 -16 15 -16
5 0 9 -6 9 -13 0 -7 9 -18 20 -25 11 -7 20 -10 20 -7 0 3 -9 15 -20 27 -11 12
-20 26 -20 30 0 9 51 -21 62 -37 4 -5 8 -6 8 -1 0 12 -57 66 -70 66 -5 0 -10
-5 -10 -11z"/>
<path d="M8380 5256 c0 -2 7 -6 15 -10 8 -3 15 -1 15 4 0 6 -7 10 -15 10 -8 0
-15 -2 -15 -4z"/>
<path d="M8445 5240 c3 -5 11 -10 16 -10 6 0 7 5 4 10 -3 6 -11 10 -16 10 -6
0 -7 -4 -4 -10z"/>
<path d="M8300 5220 c6 -11 13 -20 16 -20 2 0 0 9 -6 20 -6 11 -13 20 -16 20
-2 0 0 -9 6 -20z"/>
<path d="M8300 5180 c0 -5 7 -10 15 -10 8 0 15 5 15 10 0 6 -7 10 -15 10 -8 0
-15 -4 -15 -10z"/>
<path d="M1790 5160 c0 -5 5 -10 10 -10 6 0 10 5 10 10 0 6 -4 10 -10 10 -5 0
-10 -4 -10 -10z"/>
<path d="M8311 5138 c7 -12 21 -30 33 -40 17 -14 18 -17 5 -18 -9 0 -23 10
-32 23 -8 12 -18 19 -23 14 -4 -4 -2 -13 4 -19 13 -13 16 -32 5 -25 -5 3 -9
-6 -10 -20 0 -16 2 -21 7 -14 4 7 11 13 16 13 5 0 8 5 6 10 -2 6 8 4 22 -5 14
-9 33 -14 43 -11 10 4 3 -4 -14 -17 -18 -13 -33 -27 -33 -31 0 -3 14 -11 30
-17 18 -6 28 -6 25 -1 -4 6 -13 10 -21 10 -20 0 -18 8 13 34 31 27 24 49 -14
40 -18 -5 -24 -3 -19 5 4 6 15 11 24 11 12 1 8 6 -10 16 -16 8 -28 19 -28 25
0 11 -25 39 -35 39 -3 0 0 -10 6 -22z"/>
<path d="M1755 5120 c3 -5 8 -10 11 -10 2 0 4 5 4 10 0 6 -5 10 -11 10 -5 0
-7 -4 -4 -10z"/>
<path d="M1780 5090 c0 -5 5 -10 10 -10 6 0 10 5 10 10 0 6 -4 10 -10 10 -5 0
-10 -4 -10 -10z"/>
<path d="M8420 5060 c14 -10 26 -17 29 -15 6 7 -27 35 -41 35 -7 0 -2 -9 12
-20z"/>
<path d="M8404 4995 c11 -8 25 -15 30 -15 6 0 2 7 -8 15 -11 8 -25 15 -30 15
-6 0 -2 -7 8 -15z"/>
<path d="M1790 4980 c0 -5 5 -10 10 -10 6 0 10 5 10 10 0 6 -4 10 -10 10 -5 0
-10 -4 -10 -10z"/>
<path d="M1800 4829 c0 -5 5 -7 10 -4 6 3 10 8 10 11 0 2 -4 4 -10 4 -5 0 -10
-5 -10 -11z"/>
<path d="M8330 4830 c0 -5 5 -10 10 -10 6 0 10 5 10 10 0 6 -4 10 -10 10 -5 0
-10 -4 -10 -10z"/>
<path d="M1787 4799 c7 -7 15 -10 18 -7 3 3 -2 9 -12 12 -14 6 -15 5 -6 -5z"/>
<path d="M1740 4736 c0 -2 7 -7 16 -10 8 -3 12 -2 9 4 -6 10 -25 14 -25 6z"/>
<path d="M1755 4690 c3 -5 11 -10 16 -10 6 0 7 5 4 10 -3 6 -11 10 -16 10 -6
0 -7 -4 -4 -10z"/>
<path d="M8460 4690 c0 -5 5 -10 10 -10 6 0 10 5 10 10 0 6 -4 10 -10 10 -5 0
-10 -4 -10 -10z"/>
<path d="M1725 4670 c-3 -5 -1 -10 4 -10 6 0 11 5 11 10 0 6 -2 10 -4 10 -3 0
-8 -4 -11 -10z"/>
<path d="M1750 4601 c0 -10 29 -36 34 -30 1 2 -6 12 -16 22 -10 9 -18 13 -18
8z"/>
<path d="M1745 4550 c3 -5 8 -10 11 -10 2 0 4 5 4 10 0 6 -5 10 -11 10 -5 0
-7 -4 -4 -10z"/>
<path d="M8440 4530 c0 -5 7 -10 16 -10 8 0 12 5 9 10 -3 6 -10 10 -16 10 -5
0 -9 -4 -9 -10z"/>
<path d="M8480 4509 c0 -5 5 -7 10 -4 6 3 10 8 10 11 0 2 -4 4 -10 4 -5 0 -10
-5 -10 -11z"/>
<path d="M8440 4480 c-8 -5 -10 -10 -5 -10 6 0 17 5 25 10 8 5 11 10 5 10 -5
0 -17 -5 -25 -10z"/>
<path d="M1670 4430 c0 -5 5 -10 11 -10 5 0 7 5 4 10 -3 6 -8 10 -11 10 -2 0
-4 -4 -4 -10z"/>
<path d="M1720 4436 c0 -6 10 -20 22 -33 12 -13 17 -23 11 -23 -6 0 -16 7 -23
15 -7 8 -18 15 -24 15 -6 0 -5 -4 3 -9 12 -8 12 -12 2 -25 -8 -9 -9 -16 -3
-16 6 0 12 6 15 13 3 9 7 9 19 -1 16 -13 48 -7 48 9 0 5 -8 13 -17 16 -10 4
-26 16 -35 28 -10 11 -17 16 -18 11z"/>
<path d="M8440 4430 c0 -5 5 -10 10 -10 6 0 10 5 10 10 0 6 -4 10 -10 10 -5 0
-10 -4 -10 -10z"/>
<path d="M1680 4390 c0 -5 5 -10 11 -10 5 0 7 5 4 10 -3 6 -8 10 -11 10 -2 0
-4 -4 -4 -10z"/>
<path d="M8385 4347 c-24 -27 -26 -38 -10 -53 13 -14 18 -14 33 -2 34 27 44
39 37 46 -4 4 -10 1 -12 -5 -3 -7 -11 -13 -19 -13 -9 0 -12 -4 -9 -10 3 -5 -1
-10 -9 -10 -22 0 -20 7 10 35 23 22 24 25 8 25 -10 -1 -24 -6 -29 -13z"/>
<path d="M1688 4330 c12 -11 24 -20 28 -20 4 0 -1 9 -11 20 -10 11 -23 20 -28
20 -6 0 -1 -9 11 -20z"/>
<path d="M1720 4290 c0 -5 5 -10 10 -10 6 0 10 5 10 10 0 6 -4 10 -10 10 -5 0
-10 -4 -10 -10z"/>
<path d="M8440 4290 c0 -5 5 -10 11 -10 5 0 7 5 4 10 -3 6 -8 10 -11 10 -2 0
-4 -4 -4 -10z"/>
<path d="M8410 4271 c0 -5 9 -11 21 -14 12 -3 18 -10 14 -16 -7 -12 7 -15 18
-5 3 4 -4 15 -17 25 -27 21 -36 24 -36 10z"/>
<path d="M8360 4220 c0 -5 7 -10 15 -10 8 0 15 5 15 10 0 6 -7 10 -15 10 -8 0
-15 -4 -15 -10z"/>
<path d="M8420 4212 c0 -6 -7 -12 -15 -14 -10 -2 -12 -8 -6 -17 7 -11 11 -9
21 9 6 12 9 24 6 28 -3 3 -6 0 -6 -6z"/>
<path d="M1740 4180 c23 -20 30 -24 30 -16 0 9 -32 36 -42 36 -6 0 -1 -9 12
-20z"/>
<path d="M8440 4190 c0 -5 5 -10 10 -10 6 0 10 5 10 10 0 6 -4 10 -10 10 -5 0
-10 -4 -10 -10z"/>
<path d="M8360 4130 c0 -5 5 -10 10 -10 6 0 10 5 10 10 0 6 -4 10 -10 10 -5 0
-10 -4 -10 -10z"/>
<path d="M8432 4108 c5 -15 28 -23 28 -10 0 5 -7 13 -16 16 -10 4 -14 1 -12
-6z"/>
<path d="M1750 4080 c0 -5 7 -10 16 -10 8 0 12 5 9 10 -3 6 -10 10 -16 10 -5
0 -9 -4 -9 -10z"/>
<path d="M8430 4068 c0 -9 5 -20 11 -23 17 -11 18 -2 3 19 -12 17 -14 17 -14
4z"/>
<path d="M1747 4041 c37 -37 70 -48 68 -23 -2 26 -14 42 -33 42 -13 0 -13 -2
4 -14 10 -8 16 -17 13 -21 -4 -3 -20 6 -37 20 -41 34 -50 32 -15 -4z"/>
<path d="M8370 4055 c0 -2 14 -11 30 -20 33 -17 40 -10 13 11 -18 13 -43 19
-43 9z"/>
<path d="M1647 4039 c7 -7 15 -10 18 -7 3 3 -2 9 -12 12 -14 6 -15 5 -6 -5z"/>
<path d="M1705 4040 c-3 -5 -1 -10 4 -10 6 0 11 5 11 10 0 6 -2 10 -4 10 -3 0
-8 -4 -11 -10z"/>
<path d="M1735 4004 c22 -16 35 -18 35 -5 0 5 -12 11 -27 14 -26 5 -26 4 -8
-9z"/>
<path d="M8286 3973 c-3 -8 -1 -11 4 -8 6 3 10 1 10 -5 0 -6 20 -31 45 -54 39
-38 43 -45 30 -56 -8 -7 -15 -17 -15 -22 0 -5 12 4 28 19 l27 28 -29 15 c-16
8 -34 23 -40 34 -6 10 -21 29 -33 41 -17 18 -23 20 -27 8z"/>
<path d="M1720 3970 c0 -5 5 -10 10 -10 6 0 10 5 10 10 0 6 -4 10 -10 10 -5 0
-10 -4 -10 -10z"/>
<path d="M8372 3948 c-7 -7 -12 -17 -12 -22 0 -6 7 -3 14 7 12 15 18 16 35 8
30 -16 40 -13 11 4 -31 18 -33 18 -48 3z"/>
<path d="M1738 3936 c-10 -7 -18 -17 -18 -21 0 -4 6 -2 14 4 7 6 22 8 32 4 17
-6 17 -5 5 10 -7 9 -14 17 -15 17 0 0 -9 -7 -18 -14z"/>
<path d="M1735 3870 c3 -5 8 -10 11 -10 2 0 4 5 4 10 0 6 -5 10 -11 10 -5 0
-7 -4 -4 -10z"/>
<path d="M1760 3850 c0 -5 5 -10 10 -10 6 0 10 5 10 10 0 6 -4 10 -10 10 -5 0
-10 -4 -10 -10z"/>
<path d="M1745 3820 c3 -5 8 -10 11 -10 2 0 4 5 4 10 0 6 -5 10 -11 10 -5 0
-7 -4 -4 -10z"/>
<path d="M8356 3795 c4 -8 1 -15 -5 -15 -6 0 -11 -5 -11 -11 0 -8 5 -7 15 1 9
7 18 10 21 7 6 -6 -14 -49 -27 -57 -4 -3 -1 -14 7 -25 14 -19 16 -19 25 -2 6
9 15 15 20 11 6 -3 5 -12 -3 -22 -12 -15 -11 -16 6 -2 17 14 17 15 -7 35 -24
18 -24 22 -11 40 9 11 20 19 25 17 6 -1 8 2 4 8 -3 5 2 10 12 11 11 0 13 3 5
6 -7 3 -19 0 -27 -7 -11 -9 -18 -9 -30 4 -20 20 -26 20 -19 1z m24 -85 c0 -5
-2 -10 -4 -10 -3 0 -8 5 -11 10 -3 6 -1 10 4 10 6 0 11 -4 11 -10z"/>
<path d="M8396 3742 c-2 -4 4 -9 15 -9 11 -1 17 2 14 8 -7 11 -22 12 -29 1z"/>
<path d="M1720 3730 c0 -5 5 -10 11 -10 5 0 7 5 4 10 -3 6 -8 10 -11 10 -2 0
-4 -4 -4 -10z"/>
<path d="M1750 3710 c0 -5 7 -10 15 -10 9 0 12 -6 8 -17 -5 -13 -2 -15 11 -10
10 4 20 7 23 7 4 0 -2 9 -12 20 -19 21 -45 27 -45 10z"/>
<path d="M8440 3646 c0 -2 7 -7 16 -10 8 -3 12 -2 9 4 -6 10 -25 14 -25 6z"/>
<path d="M1720 3630 c0 -5 4 -10 9 -10 6 0 13 5 16 10 3 6 -1 10 -9 10 -9 0
-16 -4 -16 -10z"/>
<path d="M8450 3616 c0 -2 7 -6 15 -10 8 -3 15 -1 15 4 0 6 -7 10 -15 10 -8 0
-15 -2 -15 -4z"/>
<path d="M8330 3590 c0 -5 5 -10 10 -10 6 0 10 5 10 10 0 6 -4 10 -10 10 -5 0
-10 -4 -10 -10z"/>
<path d="M8385 3570 c-9 -14 24 -25 37 -12 8 8 4 9 -12 5 -16 -4 -21 -3 -16 5
4 7 5 12 2 12 -3 0 -8 -5 -11 -10z"/>
<path d="M8462 3568 c-7 -7 -12 -16 -12 -21 0 -5 7 -1 16 8 9 9 14 18 12 20
-2 3 -10 -1 -16 -7z"/>
<path d="M8412 3515 c-6 -14 -10 -25 -8 -25 2 0 11 11 20 25 9 14 13 25 8 25
-5 0 -14 -11 -20 -25z"/>
<path d="M8435 3500 c-10 -11 -14 -20 -9 -20 5 0 15 9 22 20 7 11 11 20 9 20
-2 0 -12 -9 -22 -20z"/>
<path d="M8353 3486 c-4 -8 -17 -16 -28 -18 -11 -1 -23 -10 -26 -18 -8 -18 15
-66 33 -73 7 -2 10 -8 5 -12 -4 -5 -13 -3 -19 3 -7 7 -16 12 -21 12 -12 0 15
-25 37 -33 12 -5 16 -13 11 -25 -5 -13 -4 -14 6 -5 10 10 9 16 -2 29 -13 15
-11 16 11 9 l25 -7 -25 22 c-14 12 -24 26 -22 31 1 5 -5 9 -13 9 -18 0 -19 12
-3 28 17 17 28 15 22 -5 -5 -15 -4 -15 5 -3 5 8 13 11 17 7 4 -4 2 -13 -4 -19
-7 -7 -12 -17 -12 -22 0 -6 5 -3 11 7 8 14 14 16 24 7 8 -7 20 -10 27 -7 9 4
8 6 -3 6 -11 1 -16 10 -16 27 0 22 3 25 23 20 13 -3 26 -1 30 6 4 7 3 8 -5 4
-6 -4 -18 -2 -26 4 -11 9 -18 9 -30 -4 -29 -29 -43 -20 -25 15 12 22 5 27 -7
5z"/>
<path d="M1727 3444 c-3 -4 1 -13 9 -21 8 -9 18 -12 22 -8 4 4 1 10 -6 12 -6
3 -10 9 -6 14 6 10 -9 12 -19 3z"/>
<path d="M8370 3385 c0 -2 10 -10 23 -16 20 -11 21 -11 8 4 -13 16 -31 23 -31
12z"/>
<path d="M8296 3327 c3 -10 9 -15 12 -12 3 3 0 11 -7 18 -10 9 -11 8 -5 -6z"/>
<path d="M8372 3315 c-6 -14 -10 -25 -8 -25 2 0 11 11 20 25 9 14 13 25 8 25
-5 0 -14 -11 -20 -25z"/>
<path d="M1720 3300 c0 -5 7 -10 15 -10 8 0 15 5 15 10 0 6 -7 10 -15 10 -8 0
-15 -4 -15 -10z"/>
<path d="M8320 3301 c0 -5 7 -12 16 -15 14 -5 15 -4 4 9 -14 17 -20 19 -20 6z"/>
<path d="M8387 3293 c-11 -10 -8 -20 8 -26 8 -4 17 -2 20 4 4 5 1 8 -7 7 -7
-2 -12 3 -10 10 2 13 -1 15 -11 5z"/>
<path d="M8297 3276 c-3 -8 4 -21 16 -29 12 -8 19 -18 15 -22 -4 -4 -14 -3
-21 3 -11 10 -13 6 -12 -16 2 -15 6 -36 10 -46 5 -12 5 -17 -1 -13 -5 3 -10
-3 -10 -13 0 -10 4 -16 8 -14 12 8 10 -10 -3 -23 -14 -14 3 -24 21 -12 13 7
13 9 0 9 -8 1 -4 6 9 11 26 10 43 3 22 -10 -9 -6 -10 -11 -2 -15 6 -4 11 -2
11 3 0 6 5 11 11 11 6 0 8 -7 5 -16 -6 -14 -4 -15 9 -4 12 10 13 15 3 21 -9 6
-5 14 15 33 29 27 35 41 13 33 -7 -3 -19 0 -25 6 -8 8 -16 4 -31 -13 -11 -13
-20 -27 -20 -32 0 -4 -4 -8 -10 -8 -16 0 -11 26 11 54 15 19 16 24 5 20 -9 -3
-16 -11 -16 -16 0 -6 -6 -5 -15 2 -17 14 -21 35 -5 25 6 -3 17 1 26 9 14 14
14 18 0 31 -8 8 -19 15 -25 15 -6 0 -8 7 -5 15 4 8 4 15 1 15 -3 0 -7 -6 -10
-14z m103 -122 c0 -3 -7 -12 -15 -21 -20 -19 -32 -10 -14 11 14 15 29 21 29
10z"/>
<path d="M1772 3261 c13 -22 28 -28 28 -11 0 5 -9 14 -20 20 -19 10 -20 10 -8
-9z"/>
<path d="M8360 3249 c0 -5 5 -7 10 -4 6 3 10 8 10 11 0 2 -4 4 -10 4 -5 0 -10
-5 -10 -11z"/>
<path d="M1780 3200 c0 -5 5 -10 10 -10 6 0 10 5 10 10 0 6 -4 10 -10 10 -5 0
-10 -4 -10 -10z"/>
<path d="M1750 3141 c0 -6 4 -13 10 -16 6 -3 7 1 4 9 -7 18 -14 21 -14 7z"/>
<path d="M8320 3064 c0 -8 5 -12 10 -9 6 4 8 11 5 16 -9 14 -15 11 -15 -7z"/>
<path d="M8412 3066 c16 -19 38 -15 38 7 0 8 -4 7 -9 -2 -8 -13 -12 -13 -28
-1 -17 13 -17 13 -1 -4z"/>
<path d="M1730 3060 c0 -5 5 -10 10 -10 6 0 10 5 10 10 0 6 -4 10 -10 10 -5 0
-10 -4 -10 -10z"/>
<path d="M8387 3046 c-4 -10 -1 -13 8 -9 8 3 12 9 9 14 -7 12 -11 11 -17 -5z"/>
<path d="M8375 2970 c-4 -7 0 -19 9 -28 15 -16 16 -15 13 5 -4 29 -13 38 -22
23z"/>
<path d="M8340 2950 c0 -5 5 -10 10 -10 6 0 10 5 10 10 0 6 -4 10 -10 10 -5 0
-10 -4 -10 -10z"/>
<path d="M8420 2920 c0 -5 5 -10 11 -10 5 0 7 5 4 10 -3 6 -8 10 -11 10 -2 0
-4 -4 -4 -10z"/>
<path d="M8380 2830 c0 -5 5 -10 10 -10 6 0 10 5 10 10 0 6 -4 10 -10 10 -5 0
-10 -4 -10 -10z"/>
<path d="M8335 2770 c4 -6 11 -8 16 -5 14 9 11 15 -7 15 -8 0 -12 -5 -9 -10z"/>
<path d="M1775 2590 c3 -5 8 -10 11 -10 2 0 4 5 4 10 0 6 -5 10 -11 10 -5 0
-7 -4 -4 -10z"/>
<path d="M8320 2590 c0 -6 7 -10 15 -10 8 0 15 2 15 4 0 2 -7 6 -15 10 -8 3
-15 1 -15 -4z"/>
<path d="M1813 2513 c9 -2 17 -9 17 -14 0 -5 4 -9 10 -9 5 0 7 7 4 15 -4 8
-16 14 -28 14 -16 -1 -17 -2 -3 -6z"/>
<path d="M1810 2430 c0 -5 5 -10 10 -10 6 0 10 5 10 10 0 6 -4 10 -10 10 -5 0
-10 -4 -10 -10z"/>
<path d="M8305 2420 c-11 -13 -14 -20 -6 -20 13 0 41 24 41 34 0 12 -18 5 -35
-14z"/>
<path d="M8338 2393 c7 -3 16 -2 19 1 4 3 -2 6 -13 5 -11 0 -14 -3 -6 -6z"/>
<path d="M8277 2379 c7 -7 15 -10 18 -7 3 3 -2 9 -12 12 -14 6 -15 5 -6 -5z"/>
<path d="M8220 2374 c0 -7 40 -44 48 -44 3 0 -2 8 -11 18 -10 10 -14 22 -10
25 3 4 -1 7 -10 7 -9 0 -17 -3 -17 -6z"/>
<path d="M1765 2350 c-3 -5 -1 -10 4 -10 6 0 11 5 11 10 0 6 -2 10 -4 10 -3 0
-8 -4 -11 -10z"/>
<path d="M1820 2350 c0 -5 5 -10 10 -10 6 0 10 5 10 10 0 6 -4 10 -10 10 -5 0
-10 -4 -10 -10z"/>
<path d="M1798 2273 c7 -3 16 -2 19 1 4 3 -2 6 -13 5 -11 0 -14 -3 -6 -6z"/>
<path d="M1844 2245 c11 -8 24 -15 30 -15 5 0 1 7 -10 15 -10 8 -23 14 -29 14
-5 0 -1 -6 9 -14z"/>
<path d="M1900 2239 c0 -7 -9 -20 -20 -29 -13 -11 -17 -21 -10 -25 5 -3 10 -1
10 6 0 10 3 10 12 1 8 -8 8 -15 -2 -27 -8 -10 -9 -15 -1 -15 6 0 11 4 11 10 0
5 8 6 17 3 13 -5 15 -2 10 11 -4 10 -7 20 -7 22 0 3 -4 2 -10 -1 -5 -3 -10 1
-10 9 0 9 5 16 10 16 6 0 10 7 10 15 0 8 -4 15 -10 15 -5 0 -10 -5 -10 -11z"/>
<path d="M1905 2041 c-3 -5 -1 -12 5 -16 5 -3 10 1 10 9 0 18 -6 21 -15 7z"/>
<path d="M1930 2021 c0 -5 5 -13 10 -16 17 -11 11 -31 -12 -44 l-23 -11 23 6
c16 4 22 1 22 -12 0 -10 3 -14 7 -11 3 4 16 -1 27 -10 14 -12 13 -9 -4 10 -14
16 -24 37 -22 48 2 10 -4 26 -12 35 -9 8 -16 11 -16 5z"/>
<path d="M1890 2006 c0 -2 7 -7 16 -10 8 -3 12 -2 9 4 -6 10 -25 14 -25 6z"/>
<path d="M8126 2001 c-14 -5 -16 -10 -8 -15 7 -4 19 0 28 8 17 17 11 19 -20 7z"/>
<path d="M1970 1980 c0 -5 5 -10 10 -10 6 0 10 5 10 10 0 6 -4 10 -10 10 -5 0
-10 -4 -10 -10z"/>
<path d="M2020 1975 c0 -8 7 -15 15 -15 9 0 12 6 9 15 -4 8 -10 15 -15 15 -5
0 -9 -7 -9 -15z"/>
<path d="M8145 1960 c-3 -6 1 -7 9 -4 18 7 21 14 7 14 -6 0 -13 -4 -16 -10z"/>
<path d="M1996 1945 c4 -8 10 -12 15 -9 11 6 2 24 -11 24 -5 0 -7 -7 -4 -15z"/>
<path d="M8036 1901 c-4 -5 -2 -12 3 -15 5 -4 12 -2 15 3 4 5 2 12 -3 15 -5 4
-12 2 -15 -3z"/>
<path d="M2036 1892 c-3 -6 -1 -14 5 -17 14 -9 20 -2 10 14 -6 8 -11 9 -15 3z"/>
<path d="M2070 1881 c0 -6 5 -13 10 -16 6 -3 10 1 10 9 0 9 -4 16 -10 16 -5 0
-10 -4 -10 -9z"/>
<path d="M2060 1851 c0 -12 48 -46 55 -39 3 2 -9 14 -25 27 -17 12 -30 17 -30
12z"/>
<path d="M1988 1840 c18 -4 41 -15 51 -24 10 -9 21 -16 25 -16 4 0 -6 11 -22
25 -18 15 -41 25 -58 24 -29 -1 -29 -1 4 -9z"/>
<path d="M7960 1840 c0 -5 5 -10 10 -10 6 0 10 5 10 10 0 6 -4 10 -10 10 -5 0
-10 -4 -10 -10z"/>
<path d="M1985 1820 c3 -5 8 -10 11 -10 2 0 4 5 4 10 0 6 -5 10 -11 10 -5 0
-7 -4 -4 -10z"/>
<path d="M2025 1790 c-3 -5 -1 -10 4 -10 6 0 11 5 11 10 0 6 -2 10 -4 10 -3 0
-8 -4 -11 -10z"/>
<path d="M2068 1780 c-10 -10 -14 -22 -9 -24 4 -3 13 6 19 19 14 30 12 31 -10
5z"/>
<path d="M7955 1790 c3 -5 10 -10 16 -10 5 0 9 5 9 10 0 6 -7 10 -16 10 -8 0
-12 -4 -9 -10z"/>
<path d="M2146 1765 c-2 -7 7 -18 21 -24 34 -16 37 -10 8 15 -17 15 -25 18
-29 9z"/>
<path d="M7906 1745 c-9 -26 -7 -32 5 -12 6 10 9 21 6 23 -2 3 -7 -2 -11 -11z"/>
<path d="M7810 1650 c0 -5 5 -10 10 -10 6 0 10 5 10 10 0 6 -4 10 -10 10 -5 0
-10 -4 -10 -10z"/>
<path d="M2225 1590 c4 -6 11 -8 16 -5 14 9 11 15 -7 15 -8 0 -12 -5 -9 -10z"/>
<path d="M2200 1560 c0 -5 5 -10 11 -10 5 0 7 5 4 10 -3 6 -8 10 -11 10 -2 0
-4 -4 -4 -10z"/>
<path d="M2360 1549 c0 -5 5 -7 10 -4 6 3 10 8 10 11 0 2 -4 4 -10 4 -5 0 -10
-5 -10 -11z"/>
<path d="M2230 1541 c0 -9 30 -24 36 -18 2 1 -6 8 -16 15 -11 7 -20 8 -20 3z"/>
<path d="M2283 1543 c9 -2 23 -2 30 0 6 3 -1 5 -18 5 -16 0 -22 -2 -12 -5z"/>
<path d="M2556 1522 c-3 -6 -1 -14 5 -17 15 -10 25 3 12 16 -7 7 -13 7 -17 1z"/>
<path d="M2480 1499 c0 -5 5 -7 10 -4 6 3 10 8 10 11 0 2 -4 4 -10 4 -5 0 -10
-5 -10 -11z"/>
<path d="M2500 1479 c0 -6 -9 -8 -22 -4 -21 6 -20 5 4 -16 27 -22 27 -23 10
-43 -12 -15 -9 -14 13 4 17 14 31 26 33 27 2 1 -1 11 -8 22 -11 22 -30 28 -30
10z m20 -25 c0 -8 -4 -12 -10 -9 -5 3 -10 10 -10 16 0 5 5 9 10 9 6 0 10 -7
10 -16z"/>
<path d="M7610 1460 c0 -5 5 -10 10 -10 6 0 10 5 10 10 0 6 -4 10 -10 10 -5 0
-10 -4 -10 -10z"/>
<path d="M7540 1450 c0 -5 5 -10 11 -10 5 0 7 5 4 10 -3 6 -8 10 -11 10 -2 0
-4 -4 -4 -10z"/>
<path d="M2465 1430 c3 -5 8 -10 11 -10 2 0 4 5 4 10 0 6 -5 10 -11 10 -5 0
-7 -4 -4 -10z"/>
<path d="M2572 1403 c-25 -32 -22 -43 5 -15 16 17 28 42 20 42 -2 0 -13 -12
-25 -27z"/>
<path d="M4425 1420 c-3 -6 6 -15 21 -20 36 -14 41 -7 10 14 -15 10 -27 12
-31 6z"/>
<path d="M4623 1416 c3 -7 0 -20 -6 -27 -10 -11 -9 -11 6 0 19 15 23 41 6 41
-6 0 -9 -6 -6 -14z"/>
<path d="M2440 1410 c0 -5 5 -10 11 -10 5 0 7 5 4 10 -3 6 -8 10 -11 10 -2 0
-4 -4 -4 -10z"/>
<path d="M4671 1403 c-12 -13 -11 -14 9 -8 15 5 25 2 31 -6 4 -7 11 -10 15 -7
7 8 -20 38 -33 38 -4 -1 -14 -8 -22 -17z"/>
<path d="M4750 1406 c0 -9 5 -16 10 -16 6 0 10 4 10 9 0 6 -4 13 -10 16 -5 3
-10 -1 -10 -9z"/>
<path d="M5770 1395 c0 -16 16 -20 24 -6 3 5 -1 11 -9 15 -9 3 -15 0 -15 -9z"/>
<path d="M7350 1400 c0 -5 5 -10 11 -10 5 0 7 5 4 10 -3 6 -8 10 -11 10 -2 0
-4 -4 -4 -10z"/>
<path d="M3055 1390 c-3 -5 1 -10 10 -10 9 0 13 5 10 10 -3 6 -8 10 -10 10 -2
0 -7 -4 -10 -10z"/>
<path d="M4560 1389 c0 -5 5 -7 10 -4 6 3 10 8 10 11 0 2 -4 4 -10 4 -5 0 -10
-5 -10 -11z"/>
<path d="M6975 1390 c3 -5 10 -10 16 -10 5 0 9 5 9 10 0 6 -7 10 -16 10 -8 0
-12 -4 -9 -10z"/>
<path d="M7130 1380 c14 -10 26 -17 29 -15 6 7 -27 35 -41 35 -7 0 -2 -9 12
-20z"/>
<path d="M2650 1381 c0 -6 4 -13 10 -16 6 -3 7 1 4 9 -7 18 -14 21 -14 7z"/>
<path d="M2878 1383 c7 -3 16 -2 19 1 4 3 -2 6 -13 5 -11 0 -14 -3 -6 -6z"/>
<path d="M3100 1380 c0 -5 5 -10 12 -10 6 0 20 -7 30 -17 10 -9 18 -12 18 -7
0 12 -37 44 -50 44 -6 0 -10 -4 -10 -10z"/>
<path d="M4090 1380 c0 -5 5 -10 10 -10 6 0 10 5 10 10 0 6 -4 10 -10 10 -5 0
-10 -4 -10 -10z"/>
<path d="M4145 1380 c-8 -13 -1 -24 14 -19 6 3 7 10 2 18 -6 10 -10 10 -16 1z"/>
<path d="M5550 1368 c0 -12 1 -19 3 -17 1 2 9 12 16 22 12 14 11 17 -3 17 -10
0 -16 -8 -16 -22z"/>
<path d="M7320 1380 c0 -5 5 -10 10 -10 6 0 10 5 10 10 0 6 -4 10 -10 10 -5 0
-10 -4 -10 -10z"/>
<path d="M7405 1380 c3 -5 8 -10 11 -10 2 0 4 5 4 10 0 6 -5 10 -11 10 -5 0
-7 -4 -4 -10z"/>
<path d="M2852 1366 c7 -8 15 -12 17 -11 5 6 -10 25 -20 25 -5 0 -4 -6 3 -14z"/>
<path d="M3250 1371 c0 -5 9 -13 21 -16 15 -5 18 -10 10 -18 -6 -6 -11 -15
-11 -21 0 -5 6 -1 14 10 13 17 12 21 -1 37 -18 19 -33 22 -33 8z"/>
<path d="M4237 1359 c-10 -11 -15 -24 -12 -29 10 -16 25 -11 19 5 -4 8 1 17
10 21 9 3 16 10 16 15 0 14 -13 9 -33 -12z"/>
<path d="M4630 1370 c0 -5 5 -10 11 -10 5 0 7 5 4 10 -3 6 -8 10 -11 10 -2 0
-4 -4 -4 -10z"/>
<path d="M5741 1366 c-10 -12 -8 -13 8 -9 12 3 18 9 15 14 -7 12 -10 11 -23
-5z"/>
<path d="M5886 1372 c-2 -4 6 -12 19 -18 18 -9 22 -9 18 2 -6 15 -31 26 -37
16z"/>
<path d="M6050 1370 c0 -5 7 -10 16 -10 8 0 12 5 9 10 -3 6 -10 10 -16 10 -5
0 -9 -4 -9 -10z"/>
<path d="M6230 1370 c0 -5 7 -10 16 -10 8 0 12 5 9 10 -3 6 -10 10 -16 10 -5
0 -9 -4 -9 -10z"/>
<path d="M4190 1360 c0 -5 4 -10 9 -10 6 0 13 5 16 10 3 6 -1 10 -9 10 -9 0
-16 -4 -16 -10z"/>
<path d="M4738 1363 c7 -3 16 -2 19 1 4 3 -2 6 -13 5 -11 0 -14 -3 -6 -6z"/>
<path d="M4928 1363 c7 -3 16 -2 19 1 4 3 -2 6 -13 5 -11 0 -14 -3 -6 -6z"/>
<path d="M5110 1360 c0 -5 5 -10 10 -10 6 0 10 5 10 10 0 6 -4 10 -10 10 -5 0
-10 -4 -10 -10z"/>
<path d="M5660 1366 c0 -2 7 -6 15 -10 8 -3 15 -1 15 4 0 6 -7 10 -15 10 -8 0
-15 -2 -15 -4z"/>
<path d="M6290 1360 c0 -5 5 -10 10 -10 6 0 10 5 10 10 0 6 -4 10 -10 10 -5 0
-10 -4 -10 -10z"/>
<path d="M6345 1360 c-3 -5 -1 -10 4 -10 6 0 11 5 11 10 0 6 -2 10 -4 10 -3 0
-8 -4 -11 -10z"/>
<path d="M6400 1360 c0 -5 5 -10 11 -10 5 0 7 5 4 10 -3 6 -8 10 -11 10 -2 0
-4 -4 -4 -10z"/>
<path d="M7190 1359 c0 -5 5 -7 10 -4 6 3 10 8 10 11 0 2 -4 4 -10 4 -5 0 -10
-5 -10 -11z"/>
<path d="M3080 1350 c0 -6 -4 -8 -10 -5 -5 3 -10 2 -10 -4 0 -5 5 -13 11 -16
6 -4 8 -14 4 -22 -5 -13 -3 -14 10 -3 13 11 13 15 3 21 -10 7 -10 11 0 21 10
10 15 10 23 -2 9 -13 10 -13 6 0 -4 18 -37 27 -37 10z"/>
<path d="M4075 1350 c3 -5 8 -10 11 -10 2 0 4 5 4 10 0 6 -5 10 -11 10 -5 0
-7 -4 -4 -10z"/>
<path d="M4115 1350 c3 -5 13 -10 21 -10 8 0 12 5 9 10 -3 6 -13 10 -21 10 -8
0 -12 -4 -9 -10z"/>
<path d="M5590 1350 c0 -5 5 -10 10 -10 6 0 10 5 10 10 0 6 -4 10 -10 10 -5 0
-10 -4 -10 -10z"/>
<path d="M6155 1350 c4 -6 11 -8 16 -5 14 9 11 15 -7 15 -8 0 -12 -5 -9 -10z"/>
<path d="M3230 1340 c0 -5 5 -10 10 -10 6 0 10 5 10 10 0 6 -4 10 -10 10 -5 0
-10 -4 -10 -10z"/>
<path d="M3380 1340 c0 -5 5 -10 10 -10 6 0 10 5 10 10 0 6 -4 10 -10 10 -5 0
-10 -4 -10 -10z"/>
<path d="M3507 1325 c21 -28 38 -31 59 -10 13 13 12 14 -14 9 -21 -4 -31 -2
-35 10 -4 9 -11 16 -17 16 -6 0 -3 -11 7 -25z"/>
<path d="M3648 1343 c6 -2 18 -2 25 0 6 3 1 5 -13 5 -14 0 -19 -2 -12 -5z"/>
<path d="M4270 1340 c0 -5 5 -10 11 -10 5 0 7 5 4 10 -3 6 -8 10 -11 10 -2 0
-4 -4 -4 -10z"/>
<path d="M5360 1339 c0 -5 5 -7 10 -4 6 3 10 8 10 11 0 2 -4 4 -10 4 -5 0 -10
-5 -10 -11z"/>
<path d="M5410 1341 c0 -5 7 -12 16 -15 14 -5 15 -4 4 9 -14 17 -20 19 -20 6z"/>
<path d="M5468 1332 c9 -10 19 -17 21 -16 6 5 -20 34 -30 34 -5 0 -1 -8 9 -18z"/>
<path d="M5955 1340 c-3 -6 1 -7 9 -4 18 7 21 14 7 14 -6 0 -13 -4 -16 -10z"/>
<path d="M2935 1330 c3 -5 11 -10 16 -10 6 0 7 5 4 10 -3 6 -11 10 -16 10 -6
0 -7 -4 -4 -10z"/>
<path d="M3155 1320 c-10 -11 -13 -20 -7 -20 7 0 12 5 12 11 0 7 9 9 21 6 16
-4 18 -3 8 9 -14 18 -12 18 -34 -6z"/>
<path d="M3420 1330 c0 -5 5 -10 10 -10 6 0 10 5 10 10 0 6 -4 10 -10 10 -5 0
-10 -4 -10 -10z"/>
<path d="M3865 1331 c-6 -11 13 -26 22 -17 4 3 1 6 -6 6 -7 0 -9 5 -6 10 3 6
4 10 1 10 -3 0 -7 -4 -11 -9z"/>
<path d="M6190 1331 c0 -9 30 -24 36 -18 2 1 -6 8 -16 15 -11 7 -20 8 -20 3z"/>
<path d="M6430 1330 c0 -5 5 -10 11 -10 5 0 7 5 4 10 -3 6 -8 10 -11 10 -2 0
-4 -4 -4 -10z"/>
<path d="M6905 1330 c-3 -5 -1 -10 4 -10 6 0 11 5 11 10 0 6 -2 10 -4 10 -3 0
-8 -4 -11 -10z"/>
<path d="M4048 1323 c7 -3 16 -2 19 1 4 3 -2 6 -13 5 -11 0 -14 -3 -6 -6z"/>
<path d="M4085 1319 c-11 -16 -1 -19 13 -3 7 8 8 14 3 14 -5 0 -13 -5 -16 -11z"/>
<path d="M4190 1321 c0 -5 5 -13 10 -16 6 -3 10 -2 10 4 0 5 -4 13 -10 16 -5
3 -10 2 -10 -4z"/>
<path d="M5901 1327 c2 -1 13 -9 24 -17 19 -14 19 -14 6 3 -7 9 -18 17 -24 17
-6 0 -8 -1 -6 -3z"/>
<path d="M6000 1320 c0 -5 5 -10 11 -10 5 0 7 5 4 10 -3 6 -8 10 -11 10 -2 0
-4 -4 -4 -10z"/>
<path d="M6586 1313 c-4 -9 -2 -21 4 -27 7 -7 10 -2 10 17 0 31 -5 34 -14 10z"/>
<path d="M4980 1310 c0 -5 5 -10 11 -10 5 0 7 5 4 10 -3 6 -8 10 -11 10 -2 0
-4 -4 -4 -10z"/>
<path d="M6745 1310 c3 -5 8 -10 11 -10 2 0 4 5 4 10 0 6 -5 10 -11 10 -5 0
-7 -4 -4 -10z"/>
<path d="M6620 1290 c0 -5 7 -10 16 -10 8 0 12 5 9 10 -3 6 -10 10 -16 10 -5
0 -9 -4 -9 -10z"/>
</g>
</svg>
